<?xml version="1.0" encoding="utf-8"?>
<!DOCTYPE svg PUBLIC "-//W3C//DTD SVG 1.1//EN" "http://www.w3.org/Graphics/SVG/1.1/DTD/svg11.dtd">
<svg width="840px" height="400px" viewBox="0 0 840 400" style="background:rgb(253.98,253.98,239.7)" xmlns="http://www.w3.org/2000/svg" xmlns:xlink="http://www.w3.org/1999/xlink" version="1.1">
<g id="1" transform="matrix(1,0,0,1,0,0)">
<text x="0" y="0" font-family="Arial" font-style="normal" font-weight="normal" font-size="10" fill="rgb(0,0,0)" fill-opacity="1" transform="matrix(1,0,0,1,-78.6953125,65)" >MaxScoreIns-0</text>
<text x="0" y="0" font-family="Bravura" font-style="normal" font-weight="normal" font-size="22" fill="rgb(0,0,0)" fill-opacity="1" transform="matrix(1,0,0,1,38.620689392089844,54)" ></text>
<path d="M5,3 L83,3" stroke="rgb(0,0,255)" stroke-width="2" stroke-opacity="1" fill="none" fill-opacity="1" transform="matrix(1,0,0,1,40.620689392089844,51)"/>
<path d="M83,1 L83,5" stroke="rgb(0,0,255)" stroke-width="1" stroke-opacity="1" fill="none" fill-opacity="1" transform="matrix(1,0,0,1,40.620689392089844,51)"/>
<text x="0" y="0" font-family="Bravura" font-style="normal" font-weight="normal" font-size="22" fill="rgb(0,0,0)" fill-opacity="1" transform="matrix(1,0,0,1,86.62068939208984,63)" ></text>
<path d="M5,3 L83,3" stroke="rgb(0,0,255)" stroke-width="2" stroke-opacity="1" fill="none" fill-opacity="1" transform="matrix(1,0,0,1,88.62068939208984,60)"/>
<path d="M83,1 L83,5" stroke="rgb(0,0,255)" stroke-width="1" stroke-opacity="1" fill="none" fill-opacity="1" transform="matrix(1,0,0,1,88.62068939208984,60)"/>
<text x="0" y="0" font-family="Bravura" font-style="normal" font-weight="normal" font-size="22" fill="rgb(0,0,0)" fill-opacity="1" transform="matrix(1,0,0,1,134.62069702148438,69)" ></text>
<path d="M5,3 L83,3" stroke="rgb(0,0,255)" stroke-width="2" stroke-opacity="1" fill="none" fill-opacity="1" transform="matrix(1,0,0,1,136.62069702148438,66)"/>
<path d="M83,1 L83,5" stroke="rgb(0,0,255)" stroke-width="1" stroke-opacity="1" fill="none" fill-opacity="1" transform="matrix(1,0,0,1,136.62069702148438,66)"/>
<text x="0" y="0" font-family="Bravura" font-style="normal" font-weight="normal" font-size="22" fill="rgb(0,0,0)" fill-opacity="1" transform="matrix(1,0,0,1,182.62069702148438,60)" ></text>
<path d="M5,3 L83,3" stroke="rgb(0,0,255)" stroke-width="2" stroke-opacity="1" fill="none" fill-opacity="1" transform="matrix(1,0,0,1,184.62069702148438,57)"/>
<path d="M83,1 L83,5" stroke="rgb(0,0,255)" stroke-width="1" stroke-opacity="1" fill="none" fill-opacity="1" transform="matrix(1,0,0,1,184.62069702148438,57)"/>
<text x="0" y="0" font-family="Arial" font-style="normal" font-weight="normal" font-size="10" fill="rgb(0,0,0)" fill-opacity="1" transform="matrix(1,0,0,1,-78.6953125,161)" >MaxScoreIns-1</text>
<text x="0" y="0" font-family="Bravura" font-style="normal" font-weight="normal" font-size="22" fill="rgb(0,0,0)" fill-opacity="1" transform="matrix(1,0,0,1,38.620689392089844,165)" ></text>
<path d="M5,3 L83,3" stroke="rgb(0,0,255)" stroke-width="2" stroke-opacity="1" fill="none" fill-opacity="1" transform="matrix(1,0,0,1,40.620689392089844,162)"/>
<path d="M83,1 L83,5" stroke="rgb(0,0,255)" stroke-width="1" stroke-opacity="1" fill="none" fill-opacity="1" transform="matrix(1,0,0,1,40.620689392089844,162)"/>
<text x="0" y="0" font-family="Bravura" font-style="normal" font-weight="normal" font-size="22" fill="rgb(0,0,0)" fill-opacity="1" transform="matrix(1,0,0,1,134.62069702148438,153)" ></text>
<path d="M5,3 L83,3" stroke="rgb(0,0,255)" stroke-width="2" stroke-opacity="1" fill="none" fill-opacity="1" transform="matrix(1,0,0,1,136.62069702148438,150)"/>
<path d="M83,1 L83,5" stroke="rgb(0,0,255)" stroke-width="1" stroke-opacity="1" fill="none" fill-opacity="1" transform="matrix(1,0,0,1,136.62069702148438,150)"/>
<text x="0" y="0" font-family="Bravura" font-style="normal" font-weight="normal" font-size="22" fill="rgb(0,0,0)" fill-opacity="1" transform="matrix(1,0,0,1,230.62069702148438,159)" ></text>
<path d="M5,3 L83,3" stroke="rgb(0,0,255)" stroke-width="2" stroke-opacity="1" fill="none" fill-opacity="1" transform="matrix(1,0,0,1,232.62069702148438,156)"/>
<path d="M83,1 L83,5" stroke="rgb(0,0,255)" stroke-width="1" stroke-opacity="1" fill="none" fill-opacity="1" transform="matrix(1,0,0,1,232.62069702148438,156)"/>
<path d="M20 51 L420 51 M20 57 L420 57 M20 63 L420 63 M20 69 L420 69 M20 75 L420 75 M20 147 L420 147 M20 153 L420 153 M20 159 L420 159 M20 165 L420 165 M20 171 L420 171 M420 51 L820 51 M420 57 L820 57 M420 63 L820 63 M420 69 L820 69 M420 75 L820 75 M420 147 L820 147 M420 153 L820 153 M420 159 L820 159 M420 165 L820 165 M420 171 L820 171 " stroke="rgb(0,0,0)" stroke-width="0.4" fill="rgb(0,0,0)" transform="matrix(1,0,0,1,0,0)"/>
</g>
</svg>
