<?xml version="1.0" encoding="utf-8"?>
<!DOCTYPE svg PUBLIC "-//W3C//DTD SVG 1.1//EN" "http://www.w3.org/Graphics/SVG/1.1/DTD/svg11.dtd">
<svg width="1640px" height="200px" viewBox="0 0 1640 200" style="background:rgb(253.98,253.98,239.7)" xmlns="http://www.w3.org/2000/svg" xmlns:xlink="http://www.w3.org/1999/xlink" version="1.1">
<g id="1" transform="matrix(1,0,0,1,0,0)">
<text x="0" y="0" font-family="Arial" font-style="normal" font-weight="normal" font-size="10" fill="rgb(0,0,0)" fill-opacity="1" transform="matrix(1,0,0,1,-78.6953125,65)" >MaxScoreIns-0</text>
<text x="0" y="0" font-family="Bravura" font-style="normal" font-weight="normal" font-size="22" fill="rgb(0,0,0)" fill-opacity="1" transform="matrix(1,0,0,1,38.620689392089844,51)" ></text>
<path d="M5,3 L153,3" stroke="rgb(0,0,255)" stroke-width="2" stroke-opacity="1" fill="none" fill-opacity="1" transform="matrix(1,0,0,1,40.620689392089844,48)"/>
<path d="M153,1 L153,5" stroke="rgb(0,0,255)" stroke-width="1" stroke-opacity="1" fill="none" fill-opacity="1" transform="matrix(1,0,0,1,40.620689392089844,48)"/>
<text x="0" y="0" font-family="Bravura" font-style="normal" font-weight="normal" font-size="22" fill="rgb(0,0,0)" fill-opacity="1" transform="matrix(1,0,0,1,225.62069702148438,60)" ></text>
<path d="M5,3 L73,3" stroke="rgb(0,0,255)" stroke-width="2" stroke-opacity="1" fill="none" fill-opacity="1" transform="matrix(1,0,0,1,227.62069702148438,57)"/>
<path d="M73,1 L73,5" stroke="rgb(0,0,255)" stroke-width="1" stroke-opacity="1" fill="none" fill-opacity="1" transform="matrix(1,0,0,1,227.62069702148438,57)"/>
<text x="0" y="0" font-family="Bravura" font-style="normal" font-weight="normal" font-size="22" fill="rgb(0,0,0)" fill-opacity="1" transform="matrix(1,0,0,1,225.62069702148438,51)" ></text>
<path d="M5,3 L73,3" stroke="rgb(0,0,255)" stroke-width="2" stroke-opacity="1" fill="none" fill-opacity="1" transform="matrix(1,0,0,1,227.62069702148438,48)"/>
<path d="M73,1 L73,5" stroke="rgb(0,0,255)" stroke-width="1" stroke-opacity="1" fill="none" fill-opacity="1" transform="matrix(1,0,0,1,227.62069702148438,48)"/>
<text x="0" y="0" font-family="Bravura" font-style="normal" font-weight="normal" font-size="22" fill="rgb(0,0,0)" fill-opacity="1" transform="matrix(1,0,0,1,321.6206970214844,69)" ></text>
<path d="M5,3 L73,3" stroke="rgb(0,0,255)" stroke-width="2" stroke-opacity="1" fill="none" fill-opacity="1" transform="matrix(1,0,0,1,323.6206970214844,66)"/>
<path d="M73,1 L73,5" stroke="rgb(0,0,255)" stroke-width="1" stroke-opacity="1" fill="none" fill-opacity="1" transform="matrix(1,0,0,1,323.6206970214844,66)"/>
<text x="0" y="0" font-family="Arial" font-style="normal" font-weight="normal" font-size="10" fill="rgb(0,0,0)" fill-opacity="1" transform="matrix(1,0,0,1,-78.6953125,161)" >MaxScoreIns-1</text>
<text x="0" y="0" font-family="Bravura" font-style="normal" font-weight="normal" font-size="22" fill="rgb(0,0,0)" fill-opacity="1" transform="matrix(1,0,0,1,420,63)" ></text>
<path d="M5,3 L73,3" stroke="rgb(0,0,255)" stroke-width="2" stroke-opacity="1" fill="none" fill-opacity="1" transform="matrix(1,0,0,1,422,60)"/>
<path d="M73,1 L73,5" stroke="rgb(0,0,255)" stroke-width="1" stroke-opacity="1" fill="none" fill-opacity="1" transform="matrix(1,0,0,1,422,60)"/>
<text x="0" y="0" font-family="Bravura" font-style="normal" font-weight="normal" font-size="22" fill="rgb(0,0,0)" fill-opacity="1" transform="matrix(1,0,0,1,520,63)" ></text>
<path d="M5,3 L73,3" stroke="rgb(0,0,255)" stroke-width="2" stroke-opacity="1" fill="none" fill-opacity="1" transform="matrix(1,0,0,1,522,60)"/>
<path d="M73,1 L73,5" stroke="rgb(0,0,255)" stroke-width="1" stroke-opacity="1" fill="none" fill-opacity="1" transform="matrix(1,0,0,1,522,60)"/>
<text x="0" y="0" font-family="Bravura" font-style="normal" font-weight="normal" font-size="22" fill="rgb(0,0,0)" fill-opacity="1" transform="matrix(1,0,0,1,620,57)" ></text>
<path d="M5,3 L73,3" stroke="rgb(0,0,255)" stroke-width="2" stroke-opacity="1" fill="none" fill-opacity="1" transform="matrix(1,0,0,1,622,54)"/>
<path d="M73,1 L73,5" stroke="rgb(0,0,255)" stroke-width="1" stroke-opacity="1" fill="none" fill-opacity="1" transform="matrix(1,0,0,1,622,54)"/>
<text x="0" y="0" font-family="Bravura" font-style="normal" font-weight="normal" font-size="22" fill="rgb(0,0,0)" fill-opacity="1" transform="matrix(1,0,0,1,720,66)" ></text>
<path d="M5,3 L73,3" stroke="rgb(0,0,255)" stroke-width="2" stroke-opacity="1" fill="none" fill-opacity="1" transform="matrix(1,0,0,1,722,63)"/>
<path d="M73,1 L73,5" stroke="rgb(0,0,255)" stroke-width="1" stroke-opacity="1" fill="none" fill-opacity="1" transform="matrix(1,0,0,1,722,63)"/>
<text x="0" y="0" font-family="Bravura" font-style="normal" font-weight="normal" font-size="22" fill="rgb(0,0,0)" fill-opacity="1" transform="matrix(1,0,0,1,820,69)" ></text>
<path d="M5,3 L73,3" stroke="rgb(0,0,255)" stroke-width="2" stroke-opacity="1" fill="none" fill-opacity="1" transform="matrix(1,0,0,1,822,66)"/>
<path d="M73,1 L73,5" stroke="rgb(0,0,255)" stroke-width="1" stroke-opacity="1" fill="none" fill-opacity="1" transform="matrix(1,0,0,1,822,66)"/>
<text x="0" y="0" font-family="Bravura" font-style="normal" font-weight="normal" font-size="22" fill="rgb(0,0,0)" fill-opacity="1" transform="matrix(1,0,0,1,920,66)" ></text>
<path d="M5,3 L73,3" stroke="rgb(0,0,255)" stroke-width="2" stroke-opacity="1" fill="none" fill-opacity="1" transform="matrix(1,0,0,1,922,63)"/>
<path d="M73,1 L73,5" stroke="rgb(0,0,255)" stroke-width="1" stroke-opacity="1" fill="none" fill-opacity="1" transform="matrix(1,0,0,1,922,63)"/>
<path d="M20 51 L420 51 M20 57 L420 57 M20 63 L420 63 M20 69 L420 69 M20 75 L420 75 M20 147 L420 147 M20 153 L420 153 M20 159 L420 159 M20 165 L420 165 M20 171 L420 171 M420 51 L820 51 M420 57 L820 57 M420 63 L820 63 M420 69 L820 69 M420 75 L820 75 M420 147 L820 147 M420 153 L820 153 M420 159 L820 159 M420 165 L820 165 M420 171 L820 171 M820 51 L1220 51 M820 57 L1220 57 M820 63 L1220 63 M820 69 L1220 69 M820 75 L1220 75 M820 147 L1220 147 M820 153 L1220 153 M820 159 L1220 159 M820 165 L1220 165 M820 171 L1220 171 M1220 51 L1620 51 M1220 57 L1620 57 M1220 63 L1620 63 M1220 69 L1620 69 M1220 75 L1620 75 M1220 147 L1620 147 M1220 153 L1620 153 M1220 159 L1620 159 M1220 165 L1620 165 M1220 171 L1620 171 " stroke="rgb(0,0,0)" stroke-width="0.4" fill="rgb(0,0,0)" transform="matrix(1,0,0,1,0,0)"/>
</g>
</svg>
