<?xml version="1.0" encoding="utf-8"?>
<!DOCTYPE svg PUBLIC "-//W3C//DTD SVG 1.1//EN" "http://www.w3.org/Graphics/SVG/1.1/DTD/svg11.dtd">
<svg width="800px" height="200px" viewBox="0 0 800 200" style="background: ivory" xmlns="http://www.w3.org/2000/svg" xmlns:xlink="http://www.w3.org/1999/xlink" version="1.1">
<g id="1">
<rect x="20" y="33" width="0.6" height="60" fill="black" fill-opacity="1" stroke="none" stroke-width="0.4" stroke-opacity="1" transform="matrix(1,0,0,1,0,0)" />
<text x="20" y="33" fill="black" fill-opacity="1" stroke="none" stroke-width="0" stroke-opacity="1" font-family="Arial" font-size="10" transform="matrix(1,0,0,1,0,0)" >  &lt;&lt;</text>
<text x="20" y="21" fill="black" fill-opacity="1" stroke="none" stroke-width="0" stroke-opacity="1" font-family="Bravura" font-size="12" transform="matrix(1,0,0,1,0,0)" ></text>
<text x="25" y="21" fill="black" fill-opacity="1" stroke="none" stroke-width="0" stroke-opacity="1" font-family="Bravura" font-size="8" transform="matrix(1,0,0,1,0,0)" ></text>
<text x="30" y="24" fill="black" fill-opacity="1" stroke="none" stroke-width="0" stroke-opacity="1" font-family="Arial" font-size="10" transform="matrix(1,0,0,1,0,0)" >120</text>
<text x="0" y="0" fill="rgb(0,0,0)" fill-opacity="1" stroke-width="1" stroke-opacity="1" font-family="Bravura" font-size="24" transform="matrix(1,0,0,1,22,63.959999084472656)" ></text>
<text x="0" y="0" fill="rgb(0,0,0)" fill-opacity="1" stroke-width="1" stroke-opacity="1" font-family="Bravura" font-size="24" transform="matrix(1,0,0,1,43,57)" ></text>
<text x="0" y="0" fill="rgb(0,0,0)" fill-opacity="1" stroke-width="1" stroke-opacity="1" font-family="Bravura" font-size="24" transform="matrix(1,0,0,1,43,69)" ></text>
<text x="0" y="0" fill="rgb(0,0,0)" fill-opacity="1" stroke-width="1" stroke-opacity="1" font-family="Bravura" font-size="24" transform="matrix(1,0,0,1,83.62068939208984,63)" ></text>
<path d="M105.53376007080078,63 L115.33375549316406,63" fill="black" fill-opacity="1" stroke="black" stroke-width="0.4" stroke-opacity="1" transform="matrix(1,0,0,1,0,0)" />
<text x="0" y="0" fill="rgb(0,0,0)" fill-opacity="1" stroke-width="1" stroke-opacity="1" font-family="Bravura" font-size="22" transform="matrix(1,0,0,1,106.93376159667969,63)" ></text>
<text x="0" y="0" fill="rgb(0,0,0)" fill-opacity="1" stroke-width="1" stroke-opacity="1" font-family="Bravura" font-size="22" transform="matrix(1,0,0,1,106.93376159667969,51)" ></text>
<text x="0" y="0" fill="rgb(0,0,0)" fill-opacity="1" stroke-width="1" stroke-opacity="1" font-family="Bravura" font-size="24" transform="matrix(1,0,0,1,96.55555725097656,51)" ></text>
<text x="0" y="0" fill="rgb(0,0,0)" fill-opacity="1" stroke-width="1" stroke-opacity="1" font-family="Bravura" font-size="22" transform="matrix(1,0,0,1,145.78887939453125,69)" ></text>
<text x="0" y="0" fill="rgb(0,0,0)" fill-opacity="1" stroke-width="1" stroke-opacity="1" font-family="Bravura" font-size="24" transform="matrix(1,0,0,1,137.55555725097656,69)" ></text>
<rect x="106.93376159667969" y="51" width="0.75" height="37.25" fill="black" fill-opacity="1" stroke="black" stroke-width="0.4" stroke-opacity="1" transform="matrix(1,0,0,1,0,0)" />
<rect x="106.93376159667969" y="87" width="38.8551139831543" height="3" fill="black" fill-opacity="1" stroke="none" stroke-width="0" stroke-opacity="1" transform="matrix(1,0,0,1,0,0)" />
<rect x="106.93376159667969" y="81" width="7" height="3" fill="black" fill-opacity="1" stroke="none" stroke-width="0" stroke-opacity="1" transform="matrix(1,0,0,1,0,0)" />
<text x="0" y="0" fill="rgb(0,0,0)" fill-opacity="1" stroke-width="1" stroke-opacity="1" font-family="Bravura" font-size="22" transform="matrix(1,0,0,1,138.78887939453125,51)" ></text>
<text x="0" y="0" fill="rgb(0,0,0)" fill-opacity="1" stroke-width="1" stroke-opacity="1" font-family="Bravura" font-size="24" transform="matrix(1,0,0,1,119.55555725097656,51)" ></text>
<text x="0" y="0" fill="rgb(0,0,0)" fill-opacity="1" stroke-width="1" stroke-opacity="1" font-family="Bravura" font-size="22" transform="matrix(1,0,0,1,145.78887939453125,48)" ></text>
<text x="0" y="0" fill="rgb(0,0,0)" fill-opacity="1" stroke-width="1" stroke-opacity="1" font-family="Bravura" font-size="24" transform="matrix(1,0,0,1,123.55555725097656,48)" ></text>
<path d="M144.3888702392578,45 L154.18887329101562,45" fill="black" fill-opacity="1" stroke="black" stroke-width="0.4" stroke-opacity="1" transform="matrix(1,0,0,1,0,0)" />
<path d="M144.3888702392578,39 L154.18887329101562,39" fill="black" fill-opacity="1" stroke="black" stroke-width="0.4" stroke-opacity="1" transform="matrix(1,0,0,1,0,0)" />
<path d="M144.3888702392578,33 L154.18887329101562,33" fill="black" fill-opacity="1" stroke="black" stroke-width="0.4" stroke-opacity="1" transform="matrix(1,0,0,1,0,0)" />
<text x="0" y="0" fill="rgb(0,0,0)" fill-opacity="1" stroke-width="1" stroke-opacity="1" font-family="Bravura" font-size="22" transform="matrix(1,0,0,1,145.78887939453125,33)" ></text>
<text x="0" y="0" fill="rgb(0,0,0)" fill-opacity="1" stroke-width="1" stroke-opacity="1" font-family="Bravura" font-size="24" transform="matrix(1,0,0,1,136.55555725097656,33)" ></text>
<path d="M144.3888702392578,45 L154.18887329101562,45" fill="black" fill-opacity="1" stroke="black" stroke-width="0.4" stroke-opacity="1" transform="matrix(1,0,0,1,0,0)" />
<path d="M144.3888702392578,39 L154.18887329101562,39" fill="black" fill-opacity="1" stroke="black" stroke-width="0.4" stroke-opacity="1" transform="matrix(1,0,0,1,0,0)" />
<path d="M144.3888702392578,33 L154.18887329101562,33" fill="black" fill-opacity="1" stroke="black" stroke-width="0.4" stroke-opacity="1" transform="matrix(1,0,0,1,0,0)" />
<path d="M144.3888702392578,27 L154.18887329101562,27" fill="black" fill-opacity="1" stroke="black" stroke-width="0.4" stroke-opacity="1" transform="matrix(1,0,0,1,0,0)" />
<text x="0" y="0" fill="rgb(0,0,0)" fill-opacity="1" stroke-width="1" stroke-opacity="1" font-family="Bravura" font-size="22" transform="matrix(1,0,0,1,145.78887939453125,27)" ></text>
<text x="0" y="0" fill="rgb(0,0,0)" fill-opacity="1" stroke-width="1" stroke-opacity="1" font-family="Bravura" font-size="24" transform="matrix(1,0,0,1,123.55555725097656,27)" ></text>
<path d="M144.3888702392578,45 L154.18887329101562,45" fill="black" fill-opacity="1" stroke="black" stroke-width="0.4" stroke-opacity="1" transform="matrix(1,0,0,1,0,0)" />
<path d="M144.3888702392578,39 L154.18887329101562,39" fill="black" fill-opacity="1" stroke="black" stroke-width="0.4" stroke-opacity="1" transform="matrix(1,0,0,1,0,0)" />
<path d="M144.3888702392578,33 L154.18887329101562,33" fill="black" fill-opacity="1" stroke="black" stroke-width="0.4" stroke-opacity="1" transform="matrix(1,0,0,1,0,0)" />
<path d="M144.3888702392578,27 L154.18887329101562,27" fill="black" fill-opacity="1" stroke="black" stroke-width="0.4" stroke-opacity="1" transform="matrix(1,0,0,1,0,0)" />
<path d="M144.3888702392578,21 L154.18887329101562,21" fill="black" fill-opacity="1" stroke="black" stroke-width="0.4" stroke-opacity="1" transform="matrix(1,0,0,1,0,0)" />
<text x="0" y="0" fill="rgb(0,0,0)" fill-opacity="1" stroke-width="1" stroke-opacity="1" font-family="Bravura" font-size="22" transform="matrix(1,0,0,1,145.78887939453125,18)" ></text>
<path d="M144.3888702392578,45 L154.18887329101562,45" fill="black" fill-opacity="1" stroke="black" stroke-width="0.4" stroke-opacity="1" transform="matrix(1,0,0,1,0,0)" />
<path d="M144.3888702392578,39 L154.18887329101562,39" fill="black" fill-opacity="1" stroke="black" stroke-width="0.4" stroke-opacity="1" transform="matrix(1,0,0,1,0,0)" />
<path d="M144.3888702392578,33 L154.18887329101562,33" fill="black" fill-opacity="1" stroke="black" stroke-width="0.4" stroke-opacity="1" transform="matrix(1,0,0,1,0,0)" />
<path d="M144.3888702392578,27 L154.18887329101562,27" fill="black" fill-opacity="1" stroke="black" stroke-width="0.4" stroke-opacity="1" transform="matrix(1,0,0,1,0,0)" />
<path d="M144.3888702392578,21 L154.18887329101562,21" fill="black" fill-opacity="1" stroke="black" stroke-width="0.4" stroke-opacity="1" transform="matrix(1,0,0,1,0,0)" />
<path d="M144.3888702392578,15 L154.18887329101562,15" fill="black" fill-opacity="1" stroke="black" stroke-width="0.4" stroke-opacity="1" transform="matrix(1,0,0,1,0,0)" />
<text x="0" y="0" fill="rgb(0,0,0)" fill-opacity="1" stroke-width="1" stroke-opacity="1" font-family="Bravura" font-size="22" transform="matrix(1,0,0,1,145.78887939453125,12)" ></text>
<path d="M137.3888702392578,45 L147.18887329101562,45" fill="black" fill-opacity="1" stroke="black" stroke-width="0.4" stroke-opacity="1" transform="matrix(1,0,0,1,0,0)" />
<path d="M137.3888702392578,39 L147.18887329101562,39" fill="black" fill-opacity="1" stroke="black" stroke-width="0.4" stroke-opacity="1" transform="matrix(1,0,0,1,0,0)" />
<path d="M137.3888702392578,33 L147.18887329101562,33" fill="black" fill-opacity="1" stroke="black" stroke-width="0.4" stroke-opacity="1" transform="matrix(1,0,0,1,0,0)" />
<path d="M137.3888702392578,27 L147.18887329101562,27" fill="black" fill-opacity="1" stroke="black" stroke-width="0.4" stroke-opacity="1" transform="matrix(1,0,0,1,0,0)" />
<path d="M137.3888702392578,21 L147.18887329101562,21" fill="black" fill-opacity="1" stroke="black" stroke-width="0.4" stroke-opacity="1" transform="matrix(1,0,0,1,0,0)" />
<path d="M137.3888702392578,15 L147.18887329101562,15" fill="black" fill-opacity="1" stroke="black" stroke-width="0.4" stroke-opacity="1" transform="matrix(1,0,0,1,0,0)" />
<path d="M137.3888702392578,9 L147.18887329101562,9" fill="black" fill-opacity="1" stroke="black" stroke-width="0.4" stroke-opacity="1" transform="matrix(1,0,0,1,0,0)" />
<text x="0" y="0" fill="rgb(0,0,0)" fill-opacity="1" stroke-width="1" stroke-opacity="1" font-family="Bravura" font-size="22" transform="matrix(1,0,0,1,138.78887939453125,9)" ></text>
<text x="0" y="0" fill="rgb(0,0,0)" fill-opacity="1" stroke-width="1" stroke-opacity="1" font-family="Bravura" font-size="24" transform="matrix(1,0,0,1,116.55555725097656,9)" ></text>
<path d="M144.3888702392578,45 L154.18887329101562,45" fill="black" fill-opacity="1" stroke="black" stroke-width="0.4" stroke-opacity="1" transform="matrix(1,0,0,1,0,0)" />
<path d="M144.3888702392578,39 L154.18887329101562,39" fill="black" fill-opacity="1" stroke="black" stroke-width="0.4" stroke-opacity="1" transform="matrix(1,0,0,1,0,0)" />
<path d="M144.3888702392578,33 L154.18887329101562,33" fill="black" fill-opacity="1" stroke="black" stroke-width="0.4" stroke-opacity="1" transform="matrix(1,0,0,1,0,0)" />
<path d="M144.3888702392578,27 L154.18887329101562,27" fill="black" fill-opacity="1" stroke="black" stroke-width="0.4" stroke-opacity="1" transform="matrix(1,0,0,1,0,0)" />
<path d="M144.3888702392578,21 L154.18887329101562,21" fill="black" fill-opacity="1" stroke="black" stroke-width="0.4" stroke-opacity="1" transform="matrix(1,0,0,1,0,0)" />
<path d="M144.3888702392578,15 L154.18887329101562,15" fill="black" fill-opacity="1" stroke="black" stroke-width="0.4" stroke-opacity="1" transform="matrix(1,0,0,1,0,0)" />
<path d="M144.3888702392578,9 L154.18887329101562,9" fill="black" fill-opacity="1" stroke="black" stroke-width="0.4" stroke-opacity="1" transform="matrix(1,0,0,1,0,0)" />
<text x="0" y="0" fill="rgb(0,0,0)" fill-opacity="1" stroke-width="1" stroke-opacity="1" font-family="Bravura" font-size="22" transform="matrix(1,0,0,1,145.78887939453125,6)" ></text>
<text x="0" y="0" fill="rgb(0,0,0)" fill-opacity="1" stroke-width="1" stroke-opacity="1" font-family="Bravura" font-size="24" transform="matrix(1,0,0,1,137.55555725097656,6)" ></text>
<path d="M137.3888702392578,45 L147.18887329101562,45" fill="black" fill-opacity="1" stroke="black" stroke-width="0.4" stroke-opacity="1" transform="matrix(1,0,0,1,0,0)" />
<path d="M137.3888702392578,39 L147.18887329101562,39" fill="black" fill-opacity="1" stroke="black" stroke-width="0.4" stroke-opacity="1" transform="matrix(1,0,0,1,0,0)" />
<path d="M137.3888702392578,33 L147.18887329101562,33" fill="black" fill-opacity="1" stroke="black" stroke-width="0.4" stroke-opacity="1" transform="matrix(1,0,0,1,0,0)" />
<path d="M137.3888702392578,27 L147.18887329101562,27" fill="black" fill-opacity="1" stroke="black" stroke-width="0.4" stroke-opacity="1" transform="matrix(1,0,0,1,0,0)" />
<path d="M137.3888702392578,21 L147.18887329101562,21" fill="black" fill-opacity="1" stroke="black" stroke-width="0.4" stroke-opacity="1" transform="matrix(1,0,0,1,0,0)" />
<path d="M137.3888702392578,15 L147.18887329101562,15" fill="black" fill-opacity="1" stroke="black" stroke-width="0.4" stroke-opacity="1" transform="matrix(1,0,0,1,0,0)" />
<path d="M137.3888702392578,9 L147.18887329101562,9" fill="black" fill-opacity="1" stroke="black" stroke-width="0.4" stroke-opacity="1" transform="matrix(1,0,0,1,0,0)" />
<path d="M137.3888702392578,3 L147.18887329101562,3" fill="black" fill-opacity="1" stroke="black" stroke-width="0.4" stroke-opacity="1" transform="matrix(1,0,0,1,0,0)" />
<text x="0" y="0" fill="rgb(0,0,0)" fill-opacity="1" stroke-width="1" stroke-opacity="1" font-family="Bravura" font-size="22" transform="matrix(1,0,0,1,138.78887939453125,0)" ></text>
<text x="0" y="0" fill="rgb(0,0,0)" fill-opacity="1" stroke-width="1" stroke-opacity="1" font-family="Bravura" font-size="24" transform="matrix(1,0,0,1,115.55555725097656,0)" ></text>
<path d="M144.3888702392578,45 L154.18887329101562,45" fill="black" fill-opacity="1" stroke="black" stroke-width="0.4" stroke-opacity="1" transform="matrix(1,0,0,1,0,0)" />
<path d="M144.3888702392578,39 L154.18887329101562,39" fill="black" fill-opacity="1" stroke="black" stroke-width="0.4" stroke-opacity="1" transform="matrix(1,0,0,1,0,0)" />
<path d="M144.3888702392578,33 L154.18887329101562,33" fill="black" fill-opacity="1" stroke="black" stroke-width="0.4" stroke-opacity="1" transform="matrix(1,0,0,1,0,0)" />
<path d="M144.3888702392578,27 L154.18887329101562,27" fill="black" fill-opacity="1" stroke="black" stroke-width="0.4" stroke-opacity="1" transform="matrix(1,0,0,1,0,0)" />
<path d="M144.3888702392578,21 L154.18887329101562,21" fill="black" fill-opacity="1" stroke="black" stroke-width="0.4" stroke-opacity="1" transform="matrix(1,0,0,1,0,0)" />
<path d="M144.3888702392578,15 L154.18887329101562,15" fill="black" fill-opacity="1" stroke="black" stroke-width="0.4" stroke-opacity="1" transform="matrix(1,0,0,1,0,0)" />
<path d="M144.3888702392578,9 L154.18887329101562,9" fill="black" fill-opacity="1" stroke="black" stroke-width="0.4" stroke-opacity="1" transform="matrix(1,0,0,1,0,0)" />
<path d="M144.3888702392578,3 L154.18887329101562,3" fill="black" fill-opacity="1" stroke="black" stroke-width="0.4" stroke-opacity="1" transform="matrix(1,0,0,1,0,0)" />
<path d="M144.3888702392578,-3 L154.18887329101562,-3" fill="black" fill-opacity="1" stroke="black" stroke-width="0.4" stroke-opacity="1" transform="matrix(1,0,0,1,0,0)" />
<text x="0" y="0" fill="rgb(0,0,0)" fill-opacity="1" stroke-width="1" stroke-opacity="1" font-family="Bravura" font-size="22" transform="matrix(1,0,0,1,145.78887939453125,-3)" ></text>
<text x="0" y="0" fill="rgb(0,0,0)" fill-opacity="1" stroke-width="1" stroke-opacity="1" font-family="Bravura" font-size="22" transform="matrix(1,0,0,1,192.41500854492188,69)" ></text>
<path d="M0,1.1l0-0.2c19.9,9.6,79.9,9.6,100,0v0.2C79.9,11.8,19.9,11.8,0,1.1" fill="black" fill-opacity="1" stroke="black" stroke-width="0.4" stroke-opacity="1" transform="matrix(0.3262613677978516,0,0,-1,156.28887939453125,67)" />
<rect x="145.78887939453125" y="-3" width="0.75" height="91.25" fill="black" fill-opacity="1" stroke="black" stroke-width="0.4" stroke-opacity="1" transform="matrix(1,0,0,1,0,0)" />
<text x="0" y="0" fill="rgb(0,0,0)" fill-opacity="1" stroke-width="1" stroke-opacity="1" font-family="Bravura" font-size="22" transform="matrix(1,0,0,1,192.41500854492188,51)" ></text>
<path d="M0,1.1l0-0.2c19.9,9.6,79.9,9.6,100,0v0.2C79.9,11.8,19.9,11.8,0,1.1" fill="black" fill-opacity="1" stroke="black" stroke-width="0.4" stroke-opacity="1" transform="matrix(0.3262613677978516,0,0,-1,156.28887939453125,49)" />
<text x="0" y="0" fill="rgb(0,0,0)" fill-opacity="1" stroke-width="1" stroke-opacity="1" font-family="Bravura" font-size="22" transform="matrix(1,0,0,1,199.41500854492188,48)" ></text>
<path d="M0,1.1l0-0.2c19.9,9.6,79.9,9.6,100,0v0.2C79.9,11.8,19.9,11.8,0,1.1" fill="black" fill-opacity="1" stroke="black" stroke-width="0.4" stroke-opacity="1" transform="matrix(0.3262613677978516,0,0,-1,156.28887939453125,46)" />
<path d="M191.0150146484375,45 L200.81500244140625,45" fill="black" fill-opacity="1" stroke="black" stroke-width="0.4" stroke-opacity="1" transform="matrix(1,0,0,1,0,0)" />
<path d="M191.0150146484375,39 L200.81500244140625,39" fill="black" fill-opacity="1" stroke="black" stroke-width="0.4" stroke-opacity="1" transform="matrix(1,0,0,1,0,0)" />
<path d="M191.0150146484375,33 L200.81500244140625,33" fill="black" fill-opacity="1" stroke="black" stroke-width="0.4" stroke-opacity="1" transform="matrix(1,0,0,1,0,0)" />
<text x="0" y="0" fill="rgb(0,0,0)" fill-opacity="1" stroke-width="1" stroke-opacity="1" font-family="Bravura" font-size="22" transform="matrix(1,0,0,1,192.41500854492188,33)" ></text>
<path d="M0,1.1l0-0.2c19.9,9.6,79.9,9.6,100,0v0.2C79.9,11.8,19.9,11.8,0,1.1" fill="black" fill-opacity="1" stroke="black" stroke-width="0.4" stroke-opacity="1" transform="matrix(0.3262613677978516,0,0,-1,156.28887939453125,31)" />
<path d="M191.0150146484375,45 L200.81500244140625,45" fill="black" fill-opacity="1" stroke="black" stroke-width="0.4" stroke-opacity="1" transform="matrix(1,0,0,1,0,0)" />
<path d="M191.0150146484375,39 L200.81500244140625,39" fill="black" fill-opacity="1" stroke="black" stroke-width="0.4" stroke-opacity="1" transform="matrix(1,0,0,1,0,0)" />
<path d="M191.0150146484375,33 L200.81500244140625,33" fill="black" fill-opacity="1" stroke="black" stroke-width="0.4" stroke-opacity="1" transform="matrix(1,0,0,1,0,0)" />
<path d="M191.0150146484375,27 L200.81500244140625,27" fill="black" fill-opacity="1" stroke="black" stroke-width="0.4" stroke-opacity="1" transform="matrix(1,0,0,1,0,0)" />
<text x="0" y="0" fill="rgb(0,0,0)" fill-opacity="1" stroke-width="1" stroke-opacity="1" font-family="Bravura" font-size="22" transform="matrix(1,0,0,1,192.41500854492188,27)" ></text>
<path d="M0,1.1l0-0.2c19.9,9.6,79.9,9.6,100,0v0.2C79.9,11.8,19.9,11.8,0,1.1" fill="black" fill-opacity="1" stroke="black" stroke-width="0.4" stroke-opacity="1" transform="matrix(0.3262613677978516,0,0,-1,156.28887939453125,25)" />
<path d="M191.0150146484375,45 L200.81500244140625,45" fill="black" fill-opacity="1" stroke="black" stroke-width="0.4" stroke-opacity="1" transform="matrix(1,0,0,1,0,0)" />
<path d="M191.0150146484375,39 L200.81500244140625,39" fill="black" fill-opacity="1" stroke="black" stroke-width="0.4" stroke-opacity="1" transform="matrix(1,0,0,1,0,0)" />
<path d="M191.0150146484375,33 L200.81500244140625,33" fill="black" fill-opacity="1" stroke="black" stroke-width="0.4" stroke-opacity="1" transform="matrix(1,0,0,1,0,0)" />
<path d="M191.0150146484375,27 L200.81500244140625,27" fill="black" fill-opacity="1" stroke="black" stroke-width="0.4" stroke-opacity="1" transform="matrix(1,0,0,1,0,0)" />
<path d="M191.0150146484375,21 L200.81500244140625,21" fill="black" fill-opacity="1" stroke="black" stroke-width="0.4" stroke-opacity="1" transform="matrix(1,0,0,1,0,0)" />
<text x="0" y="0" fill="rgb(0,0,0)" fill-opacity="1" stroke-width="1" stroke-opacity="1" font-family="Bravura" font-size="22" transform="matrix(1,0,0,1,192.41500854492188,18)" ></text>
<path d="M0,1.1l0-0.2c19.9,9.6,79.9,9.6,100,0v0.2C79.9,11.8,19.9,11.8,0,1.1" fill="black" fill-opacity="1" stroke="black" stroke-width="0.4" stroke-opacity="1" transform="matrix(0.3262613677978516,0,0,-1,156.28887939453125,16)" />
<path d="M191.0150146484375,45 L200.81500244140625,45" fill="black" fill-opacity="1" stroke="black" stroke-width="0.4" stroke-opacity="1" transform="matrix(1,0,0,1,0,0)" />
<path d="M191.0150146484375,39 L200.81500244140625,39" fill="black" fill-opacity="1" stroke="black" stroke-width="0.4" stroke-opacity="1" transform="matrix(1,0,0,1,0,0)" />
<path d="M191.0150146484375,33 L200.81500244140625,33" fill="black" fill-opacity="1" stroke="black" stroke-width="0.4" stroke-opacity="1" transform="matrix(1,0,0,1,0,0)" />
<path d="M191.0150146484375,27 L200.81500244140625,27" fill="black" fill-opacity="1" stroke="black" stroke-width="0.4" stroke-opacity="1" transform="matrix(1,0,0,1,0,0)" />
<path d="M191.0150146484375,21 L200.81500244140625,21" fill="black" fill-opacity="1" stroke="black" stroke-width="0.4" stroke-opacity="1" transform="matrix(1,0,0,1,0,0)" />
<path d="M191.0150146484375,15 L200.81500244140625,15" fill="black" fill-opacity="1" stroke="black" stroke-width="0.4" stroke-opacity="1" transform="matrix(1,0,0,1,0,0)" />
<text x="0" y="0" fill="rgb(0,0,0)" fill-opacity="1" stroke-width="1" stroke-opacity="1" font-family="Bravura" font-size="22" transform="matrix(1,0,0,1,192.41500854492188,12)" ></text>
<path d="M0,1.1l0-0.2c19.9,9.6,79.9,9.6,100,0v0.2C79.9,11.8,19.9,11.8,0,1.1" fill="black" fill-opacity="1" stroke="black" stroke-width="0.4" stroke-opacity="1" transform="matrix(0.3262613677978516,0,0,-1,156.28887939453125,10)" />
<path d="M198.0150146484375,45 L207.81500244140625,45" fill="black" fill-opacity="1" stroke="black" stroke-width="0.4" stroke-opacity="1" transform="matrix(1,0,0,1,0,0)" />
<path d="M198.0150146484375,39 L207.81500244140625,39" fill="black" fill-opacity="1" stroke="black" stroke-width="0.4" stroke-opacity="1" transform="matrix(1,0,0,1,0,0)" />
<path d="M198.0150146484375,33 L207.81500244140625,33" fill="black" fill-opacity="1" stroke="black" stroke-width="0.4" stroke-opacity="1" transform="matrix(1,0,0,1,0,0)" />
<path d="M198.0150146484375,27 L207.81500244140625,27" fill="black" fill-opacity="1" stroke="black" stroke-width="0.4" stroke-opacity="1" transform="matrix(1,0,0,1,0,0)" />
<path d="M198.0150146484375,21 L207.81500244140625,21" fill="black" fill-opacity="1" stroke="black" stroke-width="0.4" stroke-opacity="1" transform="matrix(1,0,0,1,0,0)" />
<path d="M198.0150146484375,15 L207.81500244140625,15" fill="black" fill-opacity="1" stroke="black" stroke-width="0.4" stroke-opacity="1" transform="matrix(1,0,0,1,0,0)" />
<path d="M198.0150146484375,9 L207.81500244140625,9" fill="black" fill-opacity="1" stroke="black" stroke-width="0.4" stroke-opacity="1" transform="matrix(1,0,0,1,0,0)" />
<text x="0" y="0" fill="rgb(0,0,0)" fill-opacity="1" stroke-width="1" stroke-opacity="1" font-family="Bravura" font-size="22" transform="matrix(1,0,0,1,199.41500854492188,9)" ></text>
<path d="M0,1.1l0-0.2c19.9,9.6,79.9,9.6,100,0v0.2C79.9,11.8,19.9,11.8,0,1.1" fill="black" fill-opacity="1" stroke="black" stroke-width="0.4" stroke-opacity="1" transform="matrix(0.3262613677978516,0,0,-1,156.28887939453125,7)" />
<path d="M191.0150146484375,45 L200.81500244140625,45" fill="black" fill-opacity="1" stroke="black" stroke-width="0.4" stroke-opacity="1" transform="matrix(1,0,0,1,0,0)" />
<path d="M191.0150146484375,39 L200.81500244140625,39" fill="black" fill-opacity="1" stroke="black" stroke-width="0.4" stroke-opacity="1" transform="matrix(1,0,0,1,0,0)" />
<path d="M191.0150146484375,33 L200.81500244140625,33" fill="black" fill-opacity="1" stroke="black" stroke-width="0.4" stroke-opacity="1" transform="matrix(1,0,0,1,0,0)" />
<path d="M191.0150146484375,27 L200.81500244140625,27" fill="black" fill-opacity="1" stroke="black" stroke-width="0.4" stroke-opacity="1" transform="matrix(1,0,0,1,0,0)" />
<path d="M191.0150146484375,21 L200.81500244140625,21" fill="black" fill-opacity="1" stroke="black" stroke-width="0.4" stroke-opacity="1" transform="matrix(1,0,0,1,0,0)" />
<path d="M191.0150146484375,15 L200.81500244140625,15" fill="black" fill-opacity="1" stroke="black" stroke-width="0.4" stroke-opacity="1" transform="matrix(1,0,0,1,0,0)" />
<path d="M191.0150146484375,9 L200.81500244140625,9" fill="black" fill-opacity="1" stroke="black" stroke-width="0.4" stroke-opacity="1" transform="matrix(1,0,0,1,0,0)" />
<text x="0" y="0" fill="rgb(0,0,0)" fill-opacity="1" stroke-width="1" stroke-opacity="1" font-family="Bravura" font-size="22" transform="matrix(1,0,0,1,192.41500854492188,6)" ></text>
<path d="M0,1.1l0-0.2c19.9,9.6,79.9,9.6,100,0v0.2C79.9,11.8,19.9,11.8,0,1.1" fill="black" fill-opacity="1" stroke="black" stroke-width="0.4" stroke-opacity="1" transform="matrix(0.3262613677978516,0,0,-1,156.28887939453125,4)" />
<path d="M191.0150146484375,45 L200.81500244140625,45" fill="black" fill-opacity="1" stroke="black" stroke-width="0.4" stroke-opacity="1" transform="matrix(1,0,0,1,0,0)" />
<path d="M191.0150146484375,39 L200.81500244140625,39" fill="black" fill-opacity="1" stroke="black" stroke-width="0.4" stroke-opacity="1" transform="matrix(1,0,0,1,0,0)" />
<path d="M191.0150146484375,33 L200.81500244140625,33" fill="black" fill-opacity="1" stroke="black" stroke-width="0.4" stroke-opacity="1" transform="matrix(1,0,0,1,0,0)" />
<path d="M191.0150146484375,27 L200.81500244140625,27" fill="black" fill-opacity="1" stroke="black" stroke-width="0.4" stroke-opacity="1" transform="matrix(1,0,0,1,0,0)" />
<path d="M191.0150146484375,21 L200.81500244140625,21" fill="black" fill-opacity="1" stroke="black" stroke-width="0.4" stroke-opacity="1" transform="matrix(1,0,0,1,0,0)" />
<path d="M191.0150146484375,15 L200.81500244140625,15" fill="black" fill-opacity="1" stroke="black" stroke-width="0.4" stroke-opacity="1" transform="matrix(1,0,0,1,0,0)" />
<path d="M191.0150146484375,9 L200.81500244140625,9" fill="black" fill-opacity="1" stroke="black" stroke-width="0.4" stroke-opacity="1" transform="matrix(1,0,0,1,0,0)" />
<path d="M191.0150146484375,3 L200.81500244140625,3" fill="black" fill-opacity="1" stroke="black" stroke-width="0.4" stroke-opacity="1" transform="matrix(1,0,0,1,0,0)" />
<text x="0" y="0" fill="rgb(0,0,0)" fill-opacity="1" stroke-width="1" stroke-opacity="1" font-family="Bravura" font-size="22" transform="matrix(1,0,0,1,192.41500854492188,0)" ></text>
<path d="M0,1.1l0-0.2c19.9,9.6,79.9,9.6,100,0v0.2C79.9,11.8,19.9,11.8,0,1.1" fill="black" fill-opacity="1" stroke="black" stroke-width="0.4" stroke-opacity="1" transform="matrix(0.3262613677978516,0,0,-1,156.28887939453125,-2)" />
<path d="M198.0150146484375,45 L207.81500244140625,45" fill="black" fill-opacity="1" stroke="black" stroke-width="0.4" stroke-opacity="1" transform="matrix(1,0,0,1,0,0)" />
<path d="M198.0150146484375,39 L207.81500244140625,39" fill="black" fill-opacity="1" stroke="black" stroke-width="0.4" stroke-opacity="1" transform="matrix(1,0,0,1,0,0)" />
<path d="M198.0150146484375,33 L207.81500244140625,33" fill="black" fill-opacity="1" stroke="black" stroke-width="0.4" stroke-opacity="1" transform="matrix(1,0,0,1,0,0)" />
<path d="M198.0150146484375,27 L207.81500244140625,27" fill="black" fill-opacity="1" stroke="black" stroke-width="0.4" stroke-opacity="1" transform="matrix(1,0,0,1,0,0)" />
<path d="M198.0150146484375,21 L207.81500244140625,21" fill="black" fill-opacity="1" stroke="black" stroke-width="0.4" stroke-opacity="1" transform="matrix(1,0,0,1,0,0)" />
<path d="M198.0150146484375,15 L207.81500244140625,15" fill="black" fill-opacity="1" stroke="black" stroke-width="0.4" stroke-opacity="1" transform="matrix(1,0,0,1,0,0)" />
<path d="M198.0150146484375,9 L207.81500244140625,9" fill="black" fill-opacity="1" stroke="black" stroke-width="0.4" stroke-opacity="1" transform="matrix(1,0,0,1,0,0)" />
<path d="M198.0150146484375,3 L207.81500244140625,3" fill="black" fill-opacity="1" stroke="black" stroke-width="0.4" stroke-opacity="1" transform="matrix(1,0,0,1,0,0)" />
<path d="M198.0150146484375,-3 L207.81500244140625,-3" fill="black" fill-opacity="1" stroke="black" stroke-width="0.4" stroke-opacity="1" transform="matrix(1,0,0,1,0,0)" />
<text x="0" y="0" fill="rgb(0,0,0)" fill-opacity="1" stroke-width="1" stroke-opacity="1" font-family="Bravura" font-size="22" transform="matrix(1,0,0,1,199.41500854492188,-3)" ></text>
<path d="M0,1.1l0-0.2c19.9,9.6,79.9,9.6,100,0v0.2C79.9,11.8,19.9,11.8,0,1.1" fill="black" fill-opacity="1" stroke="black" stroke-width="0.4" stroke-opacity="1" transform="matrix(0.3262613677978516,0,0,-1,156.28887939453125,-5)" />
<text x="0" y="0" fill="rgb(0,0,0)" fill-opacity="1" stroke-width="1" stroke-opacity="1" font-family="Bravura" font-size="24" transform="matrix(1,0,0,1,199.41500854492188,-22)" ></text>
<text x="0" y="0" fill="rgb(0,0,0)" fill-opacity="1" stroke-width="1" stroke-opacity="1" font-family="Bravura" font-size="24" transform="matrix(1,0,0,1,215.7280731201172,63)" ></text>
<text x="0" y="0" fill="rgb(0,0,0)" fill-opacity="1" stroke-width="1" stroke-opacity="1" font-family="Bravura" font-size="36" transform="matrix(1,0,0,1,227.2280731201172,61)" ></text>
<text x="0" y="0" fill="rgb(0,0,0)" fill-opacity="1" stroke-width="1" stroke-opacity="1" font-family="Bravura" font-size="24" transform="matrix(1,0,0,1,284.6958923339844,63)" ></text>
<text x="0" y="0" fill="rgb(0,0,0)" fill-opacity="1" stroke-width="1" stroke-opacity="1" font-family="Bravura" font-size="24" transform="matrix(1,0,0,1,375.0340576171875,63)" ></text>
<rect x="780.4981689453125" y="33" width="0.6" height="60" fill="black" fill-opacity="1" stroke="none" stroke-width="0.4" stroke-opacity="1" transform="matrix(1,0,0,1,0,0)" />
<rect x="465" y="33" width="0.6" height="60" fill="black" fill-opacity="1" stroke="none" stroke-width="0.4" stroke-opacity="1" transform="matrix(1,0,0,1,0,0)" />
<text x="760.4981689453125" y="33" fill="black" fill-opacity="1" stroke="none" stroke-width="0" stroke-opacity="1" font-family="Arial" font-size="10" transform="matrix(1,0,0,1,0,0)" >&gt;&gt;</text>
<rect x="199.01500854492187" y="-24" width="0.75" height="92" fill="black" fill-opacity="1" stroke="black" stroke-width="0.4" stroke-opacity="1" transform="matrix(1,0,0,1,0,0)" />
<path d="M20,51 L780.4981689453125,51,M20,57 L780.4981689453125,57,M20,69 L780.4981689453125,69,M20,75 L780.4981689453125,75,M20,81 L780.4981689453125,81,M20,87 L780.4981689453125,87,M20,93 L780.4981689453125,93,M20,45 L780.4981689453125,45,M20,39 L780.4981689453125,39,M20,33 L780.4981689453125,33," fill="black" fill-opacity="1" stroke="black" stroke-width="0.4" stroke-opacity="1" transform="matrix(1,0,0,1,0,0)" />
</g>
</svg>
