<?xml version="1.0" encoding="utf-8"?>
<!DOCTYPE svg PUBLIC "-//W3C//DTD SVG 1.1//EN" "http://www.w3.org/Graphics/SVG/1.1/DTD/svg11.dtd">
<svg width="1320px" height="14400px" viewBox="0 0 1320 14400" style="background: ivory" xmlns="http://www.w3.org/2000/svg" xmlns:xlink="http://www.w3.org/1999/xlink" version="1.1">
<g id="1">
<text x="32.8515625" y="65" fill="black" fill-opacity="1" stroke-width="1" stroke-opacity="1" font-family="Arial" font-size="10" transform="matrix(1,0,0,1,0,0)" >1.1 Violin</text>
<text x="100" y="66" fill="black" fill-opacity="1" stroke-width="1" stroke-opacity="1" font-family="Bravura" font-size="22" transform="matrix(1,0,0,1,0,0)" ></text>
<path d="M5,3 L73,3" stroke-width="2" stroke="rgb(0,0,255)" stroke-opacity="1" fill="none" transform="matrix(1,0,0,1,102,63)" />
<path d="M73,1 L73,5" stroke-width="1" stroke="rgb(0,0,255)" stroke-opacity="1" fill="none" transform="matrix(1,0,0,1,102,63)" />
<text x="100" y="57" fill="black" fill-opacity="1" stroke-width="1" stroke-opacity="1" font-family="Bravura" font-size="22" transform="matrix(1,0,0,1,0,0)" ></text>
<path d="M5,3 L73,3" stroke-width="2" stroke="rgb(0,0,255)" stroke-opacity="1" fill="none" transform="matrix(1,0,0,1,102,54)" />
<path d="M73,1 L73,5" stroke-width="1" stroke="rgb(0,0,255)" stroke-opacity="1" fill="none" transform="matrix(1,0,0,1,102,54)" />
<text x="200" y="63" fill="black" fill-opacity="1" stroke-width="1" stroke-opacity="1" font-family="Bravura" font-size="22" transform="matrix(1,0,0,1,0,0)" ></text>
<text x="206" y="79" stroke="rgb(0,0,0)" stroke-opacity="1" fill="rgb(0,0,0)" fill-opacity="1" stroke-width="0" font-family="Arial" font-size="18" font-style="normal,normal" transform="matrix(1,0,0,1,-1,13)" >TEST</text>
<text x="238" y="102" stroke="rgb(0,0,0)" stroke-opacity="1" fill="rgb(0,0,0)" fill-opacity="1" stroke-width="0" font-family="Arial" font-size="18" font-style="normal,normal" transform="matrix(1,0,0,1,-96,-20)" >TEST2</text>
<text x="238" y="102" stroke="rgb(0,0,0)" stroke-opacity="1" fill="rgb(0,0,0)" fill-opacity="1" stroke-width="0" font-family="Arial" font-size="18" font-style="normal,normal" transform="matrix(1,0,0,1,-96,-20)" >TEST2</text>
<path d="M5,3 L73,3" stroke-width="2" stroke="rgb(0,0,255)" stroke-opacity="1" fill="none" transform="matrix(1,0,0,1,202,60)" />
<path d="M73,1 L73,5" stroke-width="1" stroke="rgb(0,0,255)" stroke-opacity="1" fill="none" transform="matrix(1,0,0,1,202,60)" />
<text x="200" y="51" fill="black" fill-opacity="1" stroke-width="1" stroke-opacity="1" font-family="Bravura" font-size="22" transform="matrix(1,0,0,1,0,0)" ></text>
<path d="M5,3 L73,3" stroke-width="2" stroke="rgb(0,0,255)" stroke-opacity="1" fill="none" transform="matrix(1,0,0,1,202,48)" />
<path d="M73,1 L73,5" stroke-width="1" stroke="rgb(0,0,255)" stroke-opacity="1" fill="none" transform="matrix(1,0,0,1,202,48)" />
<text x="300" y="69" fill="black" fill-opacity="1" stroke-width="1" stroke-opacity="1" font-family="Bravura" font-size="22" transform="matrix(1,0,0,1,0,0)" ></text>
<path d="M5,3 L73,3" stroke-width="2" stroke="rgb(0,0,255)" stroke-opacity="1" fill="none" transform="matrix(1,0,0,1,302,66)" />
<path d="M73,1 L73,5" stroke-width="1" stroke="rgb(0,0,255)" stroke-opacity="1" fill="none" transform="matrix(1,0,0,1,302,66)" />
<text x="400" y="60" fill="black" fill-opacity="1" stroke-width="1" stroke-opacity="1" font-family="Bravura" font-size="22" transform="matrix(1,0,0,1,0,0)" ></text>
<path d="M5,3 L73,3" stroke-width="2" stroke="rgb(0,0,255)" stroke-opacity="1" fill="none" transform="matrix(1,0,0,1,402,57)" />
<path d="M73,1 L73,5" stroke-width="1" stroke="rgb(0,0,255)" stroke-opacity="1" fill="none" transform="matrix(1,0,0,1,402,57)" />
<text x="32.8515625" y="161" fill="black" fill-opacity="1" stroke-width="1" stroke-opacity="1" font-family="Arial" font-size="10" transform="matrix(1,0,0,1,0,0)" >1.2 Violin</text>
<text x="100" y="165" fill="black" fill-opacity="1" stroke-width="1" stroke-opacity="1" font-family="Bravura" font-size="22" transform="matrix(1,0,0,1,0,0)" ></text>
<path d="M5,3 L73,3" stroke-width="2" stroke="rgb(0,0,255)" stroke-opacity="1" fill="none" transform="matrix(1,0,0,1,102,162)" />
<path d="M73,1 L73,5" stroke-width="1" stroke="rgb(0,0,255)" stroke-opacity="1" fill="none" transform="matrix(1,0,0,1,102,162)" />
<text x="100" y="153" fill="black" fill-opacity="1" stroke-width="1" stroke-opacity="1" font-family="Bravura" font-size="22" transform="matrix(1,0,0,1,0,0)" ></text>
<path d="M5,3 L73,3" stroke-width="2" stroke="rgb(0,0,255)" stroke-opacity="1" fill="none" transform="matrix(1,0,0,1,102,150)" />
<path d="M73,1 L73,5" stroke-width="1" stroke="rgb(0,0,255)" stroke-opacity="1" fill="none" transform="matrix(1,0,0,1,102,150)" />
<path d="M198.60000610351562,177 L208.39999389648438,177" fill="black" fill-opacity="1" stroke="black" stroke-width="0.4" stroke-opacity="1" transform="matrix(1,0,0,1,0,0)" />
<text x="200" y="177" fill="black" fill-opacity="1" stroke-width="1" stroke-opacity="1" font-family="Bravura" font-size="22" transform="matrix(1,0,0,1,0,0)" ></text>
<path d="M5,3 L73,3" stroke-width="2" stroke="rgb(0,0,255)" stroke-opacity="1" fill="none" transform="matrix(1,0,0,1,202,174)" />
<path d="M73,1 L73,5" stroke-width="1" stroke="rgb(0,0,255)" stroke-opacity="1" fill="none" transform="matrix(1,0,0,1,202,174)" />
<text x="300" y="162" fill="black" fill-opacity="1" stroke-width="1" stroke-opacity="1" font-family="Bravura" font-size="22" transform="matrix(1,0,0,1,0,0)" ></text>
<path d="M5,3 L73,3" stroke-width="2" stroke="rgb(0,0,255)" stroke-opacity="1" fill="none" transform="matrix(1,0,0,1,302,159)" />
<path d="M73,1 L73,5" stroke-width="1" stroke="rgb(0,0,255)" stroke-opacity="1" fill="none" transform="matrix(1,0,0,1,302,159)" />
<text x="400" y="162" fill="black" fill-opacity="1" stroke-width="1" stroke-opacity="1" font-family="Bravura" font-size="22" transform="matrix(1,0,0,1,0,0)" ></text>
<path d="M5,3 L73,3" stroke-width="2" stroke="rgb(0,0,255)" stroke-opacity="1" fill="none" transform="matrix(1,0,0,1,402,159)" />
<path d="M73,1 L73,5" stroke-width="1" stroke="rgb(0,0,255)" stroke-opacity="1" fill="none" transform="matrix(1,0,0,1,402,159)" />
<text x="35.306640625" y="257" fill="black" fill-opacity="1" stroke-width="1" stroke-opacity="1" font-family="Arial" font-size="10" transform="matrix(1,0,0,1,0,0)" >1.3 Flute</text>
<text x="100" y="258" fill="black" fill-opacity="1" stroke-width="1" stroke-opacity="1" font-family="Bravura" font-size="22" transform="matrix(1,0,0,1,0,0)" ></text>
<path d="M5,3 L73,3" stroke-width="2" stroke="rgb(0,0,255)" stroke-opacity="1" fill="none" transform="matrix(1,0,0,1,102,255)" />
<path d="M73,1 L73,5" stroke-width="1" stroke="rgb(0,0,255)" stroke-opacity="1" fill="none" transform="matrix(1,0,0,1,102,255)" />
<text x="100" y="240" fill="black" fill-opacity="1" stroke-width="1" stroke-opacity="1" font-family="Bravura" font-size="22" transform="matrix(1,0,0,1,0,0)" ></text>
<path d="M5,3 L73,3" stroke-width="2" stroke="rgb(0,0,255)" stroke-opacity="1" fill="none" transform="matrix(1,0,0,1,102,237)" />
<path d="M73,1 L73,5" stroke-width="1" stroke="rgb(0,0,255)" stroke-opacity="1" fill="none" transform="matrix(1,0,0,1,102,237)" />
<text x="200" y="255" fill="black" fill-opacity="1" stroke-width="1" stroke-opacity="1" font-family="Bravura" font-size="22" transform="matrix(1,0,0,1,0,0)" ></text>
<path d="M5,3 L73,3" stroke-width="2" stroke="rgb(0,0,255)" stroke-opacity="1" fill="none" transform="matrix(1,0,0,1,202,252)" />
<path d="M73,1 L73,5" stroke-width="1" stroke="rgb(0,0,255)" stroke-opacity="1" fill="none" transform="matrix(1,0,0,1,202,252)" />
<path d="M198.60000610351562,237 L208.39999389648438,237" fill="black" fill-opacity="1" stroke="black" stroke-width="0.4" stroke-opacity="1" transform="matrix(1,0,0,1,0,0)" />
<path d="M198.60000610351562,231 L208.39999389648438,231" fill="black" fill-opacity="1" stroke="black" stroke-width="0.4" stroke-opacity="1" transform="matrix(1,0,0,1,0,0)" />
<text x="200" y="231" fill="black" fill-opacity="1" stroke-width="1" stroke-opacity="1" font-family="Bravura" font-size="22" transform="matrix(1,0,0,1,0,0)" ></text>
<path d="M5,3 L73,3" stroke-width="2" stroke="rgb(0,0,255)" stroke-opacity="1" fill="none" transform="matrix(1,0,0,1,202,228)" />
<path d="M73,1 L73,5" stroke-width="1" stroke="rgb(0,0,255)" stroke-opacity="1" fill="none" transform="matrix(1,0,0,1,202,228)" />
<text x="300" y="255" fill="black" fill-opacity="1" stroke-width="1" stroke-opacity="1" font-family="Bravura" font-size="22" transform="matrix(1,0,0,1,0,0)" ></text>
<path d="M5,3 L73,3" stroke-width="2" stroke="rgb(0,0,255)" stroke-opacity="1" fill="none" transform="matrix(1,0,0,1,302,252)" />
<path d="M73,1 L73,5" stroke-width="1" stroke="rgb(0,0,255)" stroke-opacity="1" fill="none" transform="matrix(1,0,0,1,302,252)" />
<text x="400" y="252" fill="black" fill-opacity="1" stroke-width="1" stroke-opacity="1" font-family="Bravura" font-size="22" transform="matrix(1,0,0,1,0,0)" ></text>
<path d="M5,3 L73,3" stroke-width="2" stroke="rgb(0,0,255)" stroke-opacity="1" fill="none" transform="matrix(1,0,0,1,402,249)" />
<path d="M73,1 L73,5" stroke-width="1" stroke="rgb(0,0,255)" stroke-opacity="1" fill="none" transform="matrix(1,0,0,1,402,249)" />
<text x="35.306640625" y="353" fill="black" fill-opacity="1" stroke-width="1" stroke-opacity="1" font-family="Arial" font-size="10" transform="matrix(1,0,0,1,0,0)" >1.4 Flute</text>
<text x="100" y="345" fill="black" fill-opacity="1" stroke-width="1" stroke-opacity="1" font-family="Bravura" font-size="22" transform="matrix(1,0,0,1,0,0)" ></text>
<path d="M5,3 L73,3" stroke-width="2" stroke="rgb(0,0,255)" stroke-opacity="1" fill="none" transform="matrix(1,0,0,1,102,342)" />
<path d="M73,1 L73,5" stroke-width="1" stroke="rgb(0,0,255)" stroke-opacity="1" fill="none" transform="matrix(1,0,0,1,102,342)" />
<text x="200" y="348" fill="black" fill-opacity="1" stroke-width="1" stroke-opacity="1" font-family="Bravura" font-size="22" transform="matrix(1,0,0,1,0,0)" ></text>
<path d="M5,3 L73,3" stroke-width="2" stroke="rgb(0,0,255)" stroke-opacity="1" fill="none" transform="matrix(1,0,0,1,202,345)" />
<path d="M73,1 L73,5" stroke-width="1" stroke="rgb(0,0,255)" stroke-opacity="1" fill="none" transform="matrix(1,0,0,1,202,345)" />
<text x="300" y="351" fill="black" fill-opacity="1" stroke-width="1" stroke-opacity="1" font-family="Bravura" font-size="22" transform="matrix(1,0,0,1,0,0)" ></text>
<path d="M5,3 L73,3" stroke-width="2" stroke="rgb(0,0,255)" stroke-opacity="1" fill="none" transform="matrix(1,0,0,1,302,348)" />
<path d="M73,1 L73,5" stroke-width="1" stroke="rgb(0,0,255)" stroke-opacity="1" fill="none" transform="matrix(1,0,0,1,302,348)" />
<text x="400" y="351" fill="black" fill-opacity="1" stroke-width="1" stroke-opacity="1" font-family="Bravura" font-size="22" transform="matrix(1,0,0,1,0,0)" ></text>
<path d="M5,3 L73,3" stroke-width="2" stroke="rgb(0,0,255)" stroke-opacity="1" fill="none" transform="matrix(1,0,0,1,402,348)" />
<path d="M73,1 L73,5" stroke-width="1" stroke="rgb(0,0,255)" stroke-opacity="1" fill="none" transform="matrix(1,0,0,1,402,348)" />
<text x="400" y="342" fill="black" fill-opacity="1" stroke-width="1" stroke-opacity="1" font-family="Bravura" font-size="22" transform="matrix(1,0,0,1,0,0)" ></text>
<path d="M5,3 L73,3" stroke-width="2" stroke="rgb(0,0,255)" stroke-opacity="1" fill="none" transform="matrix(1,0,0,1,402,339)" />
<path d="M73,1 L73,5" stroke-width="1" stroke="rgb(0,0,255)" stroke-opacity="1" fill="none" transform="matrix(1,0,0,1,402,339)" />
<text x="20.634765625" y="449" fill="black" fill-opacity="1" stroke-width="1" stroke-opacity="1" font-family="Arial" font-size="10" transform="matrix(1,0,0,1,0,0)" >1.5 Clarinet</text>
<text x="17.96875" y="545" fill="black" fill-opacity="1" stroke-width="1" stroke-opacity="1" font-family="Arial" font-size="10" transform="matrix(1,0,0,1,0,0)" >1.6 Trumpet</text>
<text x="7.955078125" y="641" fill="black" fill-opacity="1" stroke-width="1" stroke-opacity="1" font-family="Arial" font-size="10" transform="matrix(1,0,0,1,0,0)" >1.7 Trombone</text>
<text x="34.638671875" y="737" fill="black" fill-opacity="1" stroke-width="1" stroke-opacity="1" font-family="Arial" font-size="10" transform="matrix(1,0,0,1,0,0)" >1.8 Cello</text>
<text x="-101.755859375" y="833" fill="black" fill-opacity="1" stroke-width="1" stroke-opacity="1" font-family="Arial" font-size="10" transform="matrix(1,0,0,1,0,0)" >1.9 Percussion: 2 cymbals + hi-hat</text>
<text x="4.94140625" y="929" fill="black" fill-opacity="1" stroke-width="1" stroke-opacity="1" font-family="Arial" font-size="10" transform="matrix(1,0,0,1,0,0)" >1.10 Soprano</text>
<text x="-21.490234375" y="1025" fill="black" fill-opacity="1" stroke-width="1" stroke-opacity="1" font-family="Arial" font-size="10" transform="matrix(1,0,0,1,0,0)" >1.11 Electric guitar</text>
<text x="100" y="1023" fill="black" fill-opacity="1" stroke-width="1" stroke-opacity="1" font-family="Bravura" font-size="22" transform="matrix(1,0,0,1,0,0)" ></text>
<path d="M5,3 L73,3" stroke-width="2" stroke="rgb(0,0,255)" stroke-opacity="1" fill="none" transform="matrix(1,0,0,1,102,1020)" />
<path d="M73,1 L73,5" stroke-width="1" stroke="rgb(0,0,255)" stroke-opacity="1" fill="none" transform="matrix(1,0,0,1,102,1020)" />
<text x="-2.388671875" y="1121" fill="black" fill-opacity="1" stroke-width="1" stroke-opacity="1" font-family="Arial" font-size="10" transform="matrix(1,0,0,1,0,0)" >1.12 Accordion</text>
<path d="M98.5999984741211,1137 L108.4000015258789,1137" fill="black" fill-opacity="1" stroke="black" stroke-width="0.4" stroke-opacity="1" transform="matrix(1,0,0,1,0,0)" />
<path d="M98.5999984741211,1143 L108.4000015258789,1143" fill="black" fill-opacity="1" stroke="black" stroke-width="0.4" stroke-opacity="1" transform="matrix(1,0,0,1,0,0)" />
<path d="M98.5999984741211,1149 L108.4000015258789,1149" fill="black" fill-opacity="1" stroke="black" stroke-width="0.4" stroke-opacity="1" transform="matrix(1,0,0,1,0,0)" />
<text x="100" y="1152" fill="black" fill-opacity="1" stroke-width="1" stroke-opacity="1" font-family="Bravura" font-size="22" transform="matrix(1,0,0,1,0,0)" ></text>
<path d="M5,3 L73,3" stroke-width="2" stroke="rgb(0,0,255)" stroke-opacity="1" fill="none" transform="matrix(1,0,0,1,102,1149)" />
<path d="M73,1 L73,5" stroke-width="1" stroke="rgb(0,0,255)" stroke-opacity="1" fill="none" transform="matrix(1,0,0,1,102,1149)" />
<text x="200" y="1113" fill="black" fill-opacity="1" stroke-width="1" stroke-opacity="1" font-family="Bravura" font-size="22" transform="matrix(1,0,0,1,0,0)" ></text>
<path d="M5,3 L73,3" stroke-width="2" stroke="rgb(0,0,255)" stroke-opacity="1" fill="none" transform="matrix(1,0,0,1,202,1110)" />
<path d="M73,1 L73,5" stroke-width="1" stroke="rgb(0,0,255)" stroke-opacity="1" fill="none" transform="matrix(1,0,0,1,202,1110)" />
<text x="300" y="1122" fill="black" fill-opacity="1" stroke-width="1" stroke-opacity="1" font-family="Bravura" font-size="22" transform="matrix(1,0,0,1,0,0)" ></text>
<path d="M5,3 L73,3" stroke-width="2" stroke="rgb(0,0,255)" stroke-opacity="1" fill="none" transform="matrix(1,0,0,1,302,1119)" />
<path d="M73,1 L73,5" stroke-width="1" stroke="rgb(0,0,255)" stroke-opacity="1" fill="none" transform="matrix(1,0,0,1,302,1119)" />
<text x="27.8515625" y="1253" fill="black" fill-opacity="1" stroke-width="1" stroke-opacity="1" font-family="Arial" font-size="10" transform="matrix(1,0,0,1,0,0)" >2.1 Violin</text>
<text x="30.517578125" y="1349" fill="black" fill-opacity="1" stroke-width="1" stroke-opacity="1" font-family="Arial" font-size="10" transform="matrix(1,0,0,1,0,0)" >2.2 Viola</text>
<text x="30.306640625" y="1445" fill="black" fill-opacity="1" stroke-width="1" stroke-opacity="1" font-family="Arial" font-size="10" transform="matrix(1,0,0,1,0,0)" >2.3 Flute</text>
<text x="-36.40233612060547" y="1541" fill="black" fill-opacity="1" stroke-width="1" stroke-opacity="1" font-family="Arial" font-size="10" transform="matrix(1,0,0,1,0,0)" >2.4 Soprano recorder</text>
<text x="15.634765625" y="1637" fill="black" fill-opacity="1" stroke-width="1" stroke-opacity="1" font-family="Arial" font-size="10" transform="matrix(1,0,0,1,0,0)" >2.5 Clarinet</text>
<text x="14.960941314697266" y="1733" fill="black" fill-opacity="1" stroke-width="1" stroke-opacity="1" font-family="Arial" font-size="10" transform="matrix(1,0,0,1,0,0)" >2.6 Alto sax</text>
<text x="30.294921875" y="1829" fill="black" fill-opacity="1" stroke-width="1" stroke-opacity="1" font-family="Arial" font-size="10" transform="matrix(1,0,0,1,0,0)" >2.7 Tuba</text>
<text x="29.638671875" y="1925" fill="black" fill-opacity="1" stroke-width="1" stroke-opacity="1" font-family="Arial" font-size="10" transform="matrix(1,0,0,1,0,0)" >2.8 Cello</text>
<text x="-30.37889862060547" y="2021" fill="black" fill-opacity="1" stroke-width="1" stroke-opacity="1" font-family="Arial" font-size="10" transform="matrix(1,0,0,1,0,0)" >2.9 Perc: bass drum</text>
<text x="4.94140625" y="2117" fill="black" fill-opacity="1" stroke-width="1" stroke-opacity="1" font-family="Arial" font-size="10" transform="matrix(1,0,0,1,0,0)" >2.10 Soprano</text>
<text x="-21.490234375" y="2213" fill="black" fill-opacity="1" stroke-width="1" stroke-opacity="1" font-family="Arial" font-size="10" transform="matrix(1,0,0,1,0,0)" >2.11 Electric guitar</text>
<text x="-2.388671875" y="2309" fill="black" fill-opacity="1" stroke-width="1" stroke-opacity="1" font-family="Arial" font-size="10" transform="matrix(1,0,0,1,0,0)" >2.12 Accordion</text>
<text x="27.8515625" y="2441" fill="black" fill-opacity="1" stroke-width="1" stroke-opacity="1" font-family="Arial" font-size="10" transform="matrix(1,0,0,1,0,0)" >3.1 Violin</text>
<text x="27.8515625" y="2537" fill="black" fill-opacity="1" stroke-width="1" stroke-opacity="1" font-family="Arial" font-size="10" transform="matrix(1,0,0,1,0,0)" >3.2 Violin</text>
<text x="30.306640625" y="2633" fill="black" fill-opacity="1" stroke-width="1" stroke-opacity="1" font-family="Arial" font-size="10" transform="matrix(1,0,0,1,0,0)" >3.3 Flute</text>
<text x="27.62890625" y="2729" fill="black" fill-opacity="1" stroke-width="1" stroke-opacity="1" font-family="Arial" font-size="10" transform="matrix(1,0,0,1,0,0)" >3.4 Oboe</text>
<text x="15.634765625" y="2825" fill="black" fill-opacity="1" stroke-width="1" stroke-opacity="1" font-family="Arial" font-size="10" transform="matrix(1,0,0,1,0,0)" >3.5 Clarinet</text>
<text x="5.17578125" y="2921" fill="black" fill-opacity="1" stroke-width="1" stroke-opacity="1" font-family="Arial" font-size="10" transform="matrix(1,0,0,1,0,0)" >3.6 Tenor sax</text>
<text x="2.955078125" y="3017" fill="black" fill-opacity="1" stroke-width="1" stroke-opacity="1" font-family="Arial" font-size="10" transform="matrix(1,0,0,1,0,0)" >3.7 Trombone</text>
<text x="29.638671875" y="3113" fill="black" fill-opacity="1" stroke-width="1" stroke-opacity="1" font-family="Arial" font-size="10" transform="matrix(1,0,0,1,0,0)" >3.8 Cello</text>
<text x="-44.0546875" y="3209" fill="black" fill-opacity="1" stroke-width="1" stroke-opacity="1" font-family="Arial" font-size="10" transform="matrix(1,0,0,1,0,0)" >3.9 Perc: snare + toms</text>
<text x="4.94140625" y="3305" fill="black" fill-opacity="1" stroke-width="1" stroke-opacity="1" font-family="Arial" font-size="10" transform="matrix(1,0,0,1,0,0)" >3.10 Soprano</text>
<text x="-21.490234375" y="3401" fill="black" fill-opacity="1" stroke-width="1" stroke-opacity="1" font-family="Arial" font-size="10" transform="matrix(1,0,0,1,0,0)" >3.11 Electric guitar</text>
<text x="-2.388671875" y="3497" fill="black" fill-opacity="1" stroke-width="1" stroke-opacity="1" font-family="Arial" font-size="10" transform="matrix(1,0,0,1,0,0)" >3.12 Accordion</text>
<text x="27.8515625" y="3629" fill="black" fill-opacity="1" stroke-width="1" stroke-opacity="1" font-family="Arial" font-size="10" transform="matrix(1,0,0,1,0,0)" >4.1 Violin</text>
<text x="30.517578125" y="3725" fill="black" fill-opacity="1" stroke-width="1" stroke-opacity="1" font-family="Arial" font-size="10" transform="matrix(1,0,0,1,0,0)" >4.2 Viola</text>
<text x="30.306640625" y="3821" fill="black" fill-opacity="1" stroke-width="1" stroke-opacity="1" font-family="Arial" font-size="10" transform="matrix(1,0,0,1,0,0)" >4.3 Flute</text>
<text x="-11.048828125" y="3917" fill="black" fill-opacity="1" stroke-width="1" stroke-opacity="1" font-family="Arial" font-size="10" transform="matrix(1,0,0,1,0,0)" >4.4 Alto recorder</text>
<text x="15.634765625" y="4013" fill="black" fill-opacity="1" stroke-width="1" stroke-opacity="1" font-family="Arial" font-size="10" transform="matrix(1,0,0,1,0,0)" >4.5 Clarinet</text>
<text x="12.96875" y="4109" fill="black" fill-opacity="1" stroke-width="1" stroke-opacity="1" font-family="Arial" font-size="10" transform="matrix(1,0,0,1,0,0)" >4.6 Trumpet</text>
<text x="10.28515625" y="4205" fill="black" fill-opacity="1" stroke-width="1" stroke-opacity="1" font-family="Arial" font-size="10" transform="matrix(1,0,0,1,0,0)" >4.7 Bassoon</text>
<text x="-9.724609375" y="4301" fill="black" fill-opacity="1" stroke-width="1" stroke-opacity="1" font-family="Arial" font-size="10" transform="matrix(1,0,0,1,0,0)" >4.8 Double bass</text>
<text x="-164.21876525878906" y="4397" fill="black" fill-opacity="1" stroke-width="1" stroke-opacity="1" font-family="Arial" font-size="10" transform="matrix(1,0,0,1,0,0)" >4.9 Perc: Gongs + Tam-tam + Chinese drums</text>
<text x="4.94140625" y="4493" fill="black" fill-opacity="1" stroke-width="1" stroke-opacity="1" font-family="Arial" font-size="10" transform="matrix(1,0,0,1,0,0)" >4.10 Soprano</text>
<text x="-21.490234375" y="4589" fill="black" fill-opacity="1" stroke-width="1" stroke-opacity="1" font-family="Arial" font-size="10" transform="matrix(1,0,0,1,0,0)" >4.11 Electric guitar</text>
<text x="-2.388671875" y="4685" fill="black" fill-opacity="1" stroke-width="1" stroke-opacity="1" font-family="Arial" font-size="10" transform="matrix(1,0,0,1,0,0)" >4.12 Accordion</text>
<text x="27.8515625" y="4817" fill="black" fill-opacity="1" stroke-width="1" stroke-opacity="1" font-family="Arial" font-size="10" transform="matrix(1,0,0,1,0,0)" >5.1 Violin</text>
<text x="27.8515625" y="4913" fill="black" fill-opacity="1" stroke-width="1" stroke-opacity="1" font-family="Arial" font-size="10" transform="matrix(1,0,0,1,0,0)" >5.2 Violin</text>
<text x="30.306640625" y="5009" fill="black" fill-opacity="1" stroke-width="1" stroke-opacity="1" font-family="Arial" font-size="10" transform="matrix(1,0,0,1,0,0)" >5.3 Flute</text>
<text x="-20.833984375" y="5105" fill="black" fill-opacity="1" stroke-width="1" stroke-opacity="1" font-family="Arial" font-size="10" transform="matrix(1,0,0,1,0,0)" >5.4 Tenor recorder</text>
<text x="15.634765625" y="5201" fill="black" fill-opacity="1" stroke-width="1" stroke-opacity="1" font-family="Arial" font-size="10" transform="matrix(1,0,0,1,0,0)" >5.5 Clarinet</text>
<text x="14.960941314697266" y="5297" fill="black" fill-opacity="1" stroke-width="1" stroke-opacity="1" font-family="Arial" font-size="10" transform="matrix(1,0,0,1,0,0)" >5.6 Alto sax</text>
<text x="2.955078125" y="5393" fill="black" fill-opacity="1" stroke-width="1" stroke-opacity="1" font-family="Arial" font-size="10" transform="matrix(1,0,0,1,0,0)" >5.7 Trombone</text>
<text x="29.638671875" y="5489" fill="black" fill-opacity="1" stroke-width="1" stroke-opacity="1" font-family="Arial" font-size="10" transform="matrix(1,0,0,1,0,0)" >5.8 Cello</text>
<text x="-30.37889862060547" y="5585" fill="black" fill-opacity="1" stroke-width="1" stroke-opacity="1" font-family="Arial" font-size="10" transform="matrix(1,0,0,1,0,0)" >5.9 Perc: bass drum</text>
<text x="4.94140625" y="5681" fill="black" fill-opacity="1" stroke-width="1" stroke-opacity="1" font-family="Arial" font-size="10" transform="matrix(1,0,0,1,0,0)" >5.10 Soprano</text>
<text x="-21.490234375" y="5777" fill="black" fill-opacity="1" stroke-width="1" stroke-opacity="1" font-family="Arial" font-size="10" transform="matrix(1,0,0,1,0,0)" >5.11 Electric guitar</text>
<text x="-2.388671875" y="5873" fill="black" fill-opacity="1" stroke-width="1" stroke-opacity="1" font-family="Arial" font-size="10" transform="matrix(1,0,0,1,0,0)" >5.12 Accordion</text>
<text x="27.8515625" y="6005" fill="black" fill-opacity="1" stroke-width="1" stroke-opacity="1" font-family="Arial" font-size="10" transform="matrix(1,0,0,1,0,0)" >6.1 Violin</text>
<text x="30.517578125" y="6101" fill="black" fill-opacity="1" stroke-width="1" stroke-opacity="1" font-family="Arial" font-size="10" transform="matrix(1,0,0,1,0,0)" >6.2 Viola</text>
<text x="30.306640625" y="6197" fill="black" fill-opacity="1" stroke-width="1" stroke-opacity="1" font-family="Arial" font-size="10" transform="matrix(1,0,0,1,0,0)" >6.3 Flute</text>
<text x="27.62890625" y="6293" fill="black" fill-opacity="1" stroke-width="1" stroke-opacity="1" font-family="Arial" font-size="10" transform="matrix(1,0,0,1,0,0)" >6.4 Oboe</text>
<text x="15.634765625" y="6389" fill="black" fill-opacity="1" stroke-width="1" stroke-opacity="1" font-family="Arial" font-size="10" transform="matrix(1,0,0,1,0,0)" >6.5 Clarinet</text>
<text x="5.17578125" y="6485" fill="black" fill-opacity="1" stroke-width="1" stroke-opacity="1" font-family="Arial" font-size="10" transform="matrix(1,0,0,1,0,0)" >6.6 Tenor sax</text>
<text x="30.294921875" y="6581" fill="black" fill-opacity="1" stroke-width="1" stroke-opacity="1" font-family="Arial" font-size="10" transform="matrix(1,0,0,1,0,0)" >6.7 Tuba</text>
<text x="32.3046875" y="6677" fill="black" fill-opacity="1" stroke-width="1" stroke-opacity="1" font-family="Arial" font-size="10" transform="matrix(1,0,0,1,0,0)" >6.8 cello</text>
<text x="-66.5078125" y="6773" fill="black" fill-opacity="1" stroke-width="1" stroke-opacity="1" font-family="Arial" font-size="10" transform="matrix(1,0,0,1,0,0)" >6.9 Perc: Snare + Tom-tom</text>
<text x="6.9453125" y="6869" fill="black" fill-opacity="1" stroke-width="1" stroke-opacity="1" font-family="Arial" font-size="10" transform="matrix(1,0,0,1,0,0)" >6.10 baritone</text>
<text x="-21.490234375" y="6965" fill="black" fill-opacity="1" stroke-width="1" stroke-opacity="1" font-family="Arial" font-size="10" transform="matrix(1,0,0,1,0,0)" >6.11 Electric guitar</text>
<text x="-2.388671875" y="7061" fill="black" fill-opacity="1" stroke-width="1" stroke-opacity="1" font-family="Arial" font-size="10" transform="matrix(1,0,0,1,0,0)" >6.12 Accordion</text>
<text x="27.8515625" y="7193" fill="black" fill-opacity="1" stroke-width="1" stroke-opacity="1" font-family="Arial" font-size="10" transform="matrix(1,0,0,1,0,0)" >7.1 Violin</text>
<text x="27.8515625" y="7289" fill="black" fill-opacity="1" stroke-width="1" stroke-opacity="1" font-family="Arial" font-size="10" transform="matrix(1,0,0,1,0,0)" >7.2 Violin</text>
<text x="30.306640625" y="7385" fill="black" fill-opacity="1" stroke-width="1" stroke-opacity="1" font-family="Arial" font-size="10" transform="matrix(1,0,0,1,0,0)" >7.3 Flute</text>
<text x="-17.7109375" y="7481" fill="black" fill-opacity="1" stroke-width="1" stroke-opacity="1" font-family="Arial" font-size="10" transform="matrix(1,0,0,1,0,0)" >7.4 Bass recorder</text>
<text x="15.634765625" y="7577" fill="black" fill-opacity="1" stroke-width="1" stroke-opacity="1" font-family="Arial" font-size="10" transform="matrix(1,0,0,1,0,0)" >7.5 Clarinet</text>
<text x="16.302734375" y="7673" fill="black" fill-opacity="1" stroke-width="1" stroke-opacity="1" font-family="Arial" font-size="10" transform="matrix(1,0,0,1,0,0)" >7.6 trumpet</text>
<text x="2.955078125" y="7769" fill="black" fill-opacity="1" stroke-width="1" stroke-opacity="1" font-family="Arial" font-size="10" transform="matrix(1,0,0,1,0,0)" >7.7 Trombone</text>
<text x="29.638671875" y="7865" fill="black" fill-opacity="1" stroke-width="1" stroke-opacity="1" font-family="Arial" font-size="10" transform="matrix(1,0,0,1,0,0)" >7.8 Cello</text>
<text x="-72.068359375" y="7961" fill="black" fill-opacity="1" stroke-width="1" stroke-opacity="1" font-family="Arial" font-size="10" transform="matrix(1,0,0,1,0,0)" >7.9 Perc: 2 cymbals + hi-hat</text>
<text x="4.94140625" y="8057" fill="black" fill-opacity="1" stroke-width="1" stroke-opacity="1" font-family="Arial" font-size="10" transform="matrix(1,0,0,1,0,0)" >7.10 Soprano</text>
<text x="-21.490234375" y="8153" fill="black" fill-opacity="1" stroke-width="1" stroke-opacity="1" font-family="Arial" font-size="10" transform="matrix(1,0,0,1,0,0)" >7.11 Electric guitar</text>
<text x="-2.388671875" y="8249" fill="black" fill-opacity="1" stroke-width="1" stroke-opacity="1" font-family="Arial" font-size="10" transform="matrix(1,0,0,1,0,0)" >7.12 Accordion</text>
<text x="27.8515625" y="8381" fill="black" fill-opacity="1" stroke-width="1" stroke-opacity="1" font-family="Arial" font-size="10" transform="matrix(1,0,0,1,0,0)" >8.1 Violin</text>
<text x="30.517578125" y="8477" fill="black" fill-opacity="1" stroke-width="1" stroke-opacity="1" font-family="Arial" font-size="10" transform="matrix(1,0,0,1,0,0)" >8.2 Viola</text>
<text x="30.306640625" y="8573" fill="black" fill-opacity="1" stroke-width="1" stroke-opacity="1" font-family="Arial" font-size="10" transform="matrix(1,0,0,1,0,0)" >8.3 Flute</text>
<text x="30.306640625" y="8669" fill="black" fill-opacity="1" stroke-width="1" stroke-opacity="1" font-family="Arial" font-size="10" transform="matrix(1,0,0,1,0,0)" >8.4 Flute</text>
<text x="15.634765625" y="8765" fill="black" fill-opacity="1" stroke-width="1" stroke-opacity="1" font-family="Arial" font-size="10" transform="matrix(1,0,0,1,0,0)" >8.5 Clarinet</text>
<text x="14.960941314697266" y="8861" fill="black" fill-opacity="1" stroke-width="1" stroke-opacity="1" font-family="Arial" font-size="10" transform="matrix(1,0,0,1,0,0)" >8.6 Alto sax</text>
<text x="11.615234375" y="8957" fill="black" fill-opacity="1" stroke-width="1" stroke-opacity="1" font-family="Arial" font-size="10" transform="matrix(1,0,0,1,0,0)" >8.7 bassoon</text>
<text x="32.3046875" y="9053" fill="black" fill-opacity="1" stroke-width="1" stroke-opacity="1" font-family="Arial" font-size="10" transform="matrix(1,0,0,1,0,0)" >8.8 cello</text>
<text x="-36.37890625" y="9149" fill="black" fill-opacity="1" stroke-width="1" stroke-opacity="1" font-family="Arial" font-size="10" transform="matrix(1,0,0,1,0,0)" >8.9 Perc: bass drums</text>
<text x="6.9453125" y="9245" fill="black" fill-opacity="1" stroke-width="1" stroke-opacity="1" font-family="Arial" font-size="10" transform="matrix(1,0,0,1,0,0)" >8.10 soprano</text>
<text x="-21.490234375" y="9341" fill="black" fill-opacity="1" stroke-width="1" stroke-opacity="1" font-family="Arial" font-size="10" transform="matrix(1,0,0,1,0,0)" >8.11 Electric guitar</text>
<text x="-1.720703125" y="9437" fill="black" fill-opacity="1" stroke-width="1" stroke-opacity="1" font-family="Arial" font-size="10" transform="matrix(1,0,0,1,0,0)" >8.12 accordion</text>
<text x="27.8515625" y="9569" fill="black" fill-opacity="1" stroke-width="1" stroke-opacity="1" font-family="Arial" font-size="10" transform="matrix(1,0,0,1,0,0)" >9.1 Violin</text>
<text x="27.8515625" y="9665" fill="black" fill-opacity="1" stroke-width="1" stroke-opacity="1" font-family="Arial" font-size="10" transform="matrix(1,0,0,1,0,0)" >9.2 Violin</text>
<text x="30.306640625" y="9761" fill="black" fill-opacity="1" stroke-width="1" stroke-opacity="1" font-family="Arial" font-size="10" transform="matrix(1,0,0,1,0,0)" >9.3 Flute</text>
<text x="-42.732421875" y="9857" fill="black" fill-opacity="1" stroke-width="1" stroke-opacity="1" font-family="Arial" font-size="10" transform="matrix(1,0,0,1,0,0)" >9.4 Subbass recorder</text>
<text x="10.634765625" y="9953" fill="black" fill-opacity="1" stroke-width="1" stroke-opacity="1" font-family="Arial" font-size="10" transform="matrix(1,0,0,1,0,0)" >9.5 Clarinet</text>
<text x="0.17578125" y="10049" fill="black" fill-opacity="1" stroke-width="1" stroke-opacity="1" font-family="Arial" font-size="10" transform="matrix(1,0,0,1,0,0)" >9.6 Tenor sax</text>
<text x="-2.044921875" y="10145" fill="black" fill-opacity="1" stroke-width="1" stroke-opacity="1" font-family="Arial" font-size="10" transform="matrix(1,0,0,1,0,0)" >9.7 Trombone</text>
<text x="24.638671875" y="10241" fill="black" fill-opacity="1" stroke-width="1" stroke-opacity="1" font-family="Arial" font-size="10" transform="matrix(1,0,0,1,0,0)" >9.8 Cello</text>
<text x="-49.0546875" y="10337" fill="black" fill-opacity="1" stroke-width="1" stroke-opacity="1" font-family="Arial" font-size="10" transform="matrix(1,0,0,1,0,0)" >9.9 Perc: snare + toms</text>
<text x="1.9453125" y="10433" fill="black" fill-opacity="1" stroke-width="1" stroke-opacity="1" font-family="Arial" font-size="10" transform="matrix(1,0,0,1,0,0)" >9.10 soprano</text>
<text x="-26.490234375" y="10529" fill="black" fill-opacity="1" stroke-width="1" stroke-opacity="1" font-family="Arial" font-size="10" transform="matrix(1,0,0,1,0,0)" >9.11 Electric guitar</text>
<text x="-6.720703125" y="10625" fill="black" fill-opacity="1" stroke-width="1" stroke-opacity="1" font-family="Arial" font-size="10" transform="matrix(1,0,0,1,0,0)" >9.12 accordion</text>
<text x="16.177734375" y="10757" fill="black" fill-opacity="1" stroke-width="1" stroke-opacity="1" font-family="Arial" font-size="10" transform="matrix(1,0,0,1,0,0)" >10.1 Violin</text>
<text x="18.84375" y="10853" fill="black" fill-opacity="1" stroke-width="1" stroke-opacity="1" font-family="Arial" font-size="10" transform="matrix(1,0,0,1,0,0)" >10.2 Viola</text>
<text x="18.6328125" y="10949" fill="black" fill-opacity="1" stroke-width="1" stroke-opacity="1" font-family="Arial" font-size="10" transform="matrix(1,0,0,1,0,0)" >10.3 Flute</text>
<text x="15.955074310302734" y="11045" fill="black" fill-opacity="1" stroke-width="1" stroke-opacity="1" font-family="Arial" font-size="10" transform="matrix(1,0,0,1,0,0)" >10.4 Oboe</text>
<text x="3.9609375" y="11141" fill="black" fill-opacity="1" stroke-width="1" stroke-opacity="1" font-family="Arial" font-size="10" transform="matrix(1,0,0,1,0,0)" >10.5 Clarinet</text>
<text x="4.62890625" y="11237" fill="black" fill-opacity="1" stroke-width="1" stroke-opacity="1" font-family="Arial" font-size="10" transform="matrix(1,0,0,1,0,0)" >10.6 trumpet</text>
<text x="6.404296875" y="11333" fill="black" fill-opacity="1" stroke-width="1" stroke-opacity="1" font-family="Arial" font-size="10" transform="matrix(1,0,0,1,0,0)" >10.7 B-Tuba</text>
<text x="-21.3984375" y="11429" fill="black" fill-opacity="1" stroke-width="1" stroke-opacity="1" font-family="Arial" font-size="10" transform="matrix(1,0,0,1,0,0)" >10.8 Double bass</text>
<text x="-202.576171875" y="11525" fill="black" fill-opacity="1" stroke-width="1" stroke-opacity="1" font-family="Arial" font-size="10" transform="matrix(1,0,0,1,0,0)" >10.9 Perc: Gongs + Tam-tam + Chinese drums 	pe	
</text>
<text x="-4.728515625" y="11621" fill="black" fill-opacity="1" stroke-width="1" stroke-opacity="1" font-family="Arial" font-size="10" transform="matrix(1,0,0,1,0,0)" >10.10 baritone</text>
<text x="-33.1640625" y="11717" fill="black" fill-opacity="1" stroke-width="1" stroke-opacity="1" font-family="Arial" font-size="10" transform="matrix(1,0,0,1,0,0)" >10.11 Electric guitar</text>
<text x="-13.39453125" y="11813" fill="black" fill-opacity="1" stroke-width="1" stroke-opacity="1" font-family="Arial" font-size="10" transform="matrix(1,0,0,1,0,0)" >10.12 accordion</text>
<text x="17.068359375" y="11945" fill="black" fill-opacity="1" stroke-width="1" stroke-opacity="1" font-family="Arial" font-size="10" transform="matrix(1,0,0,1,0,0)" >11.1 Violin</text>
<text x="17.068359375" y="12041" fill="black" fill-opacity="1" stroke-width="1" stroke-opacity="1" font-family="Arial" font-size="10" transform="matrix(1,0,0,1,0,0)" >11.2 Violin</text>
<text x="19.5234375" y="12137" fill="black" fill-opacity="1" stroke-width="1" stroke-opacity="1" font-family="Arial" font-size="10" transform="matrix(1,0,0,1,0,0)" >11.3 Flute</text>
<text x="-47.185546875" y="12233" fill="black" fill-opacity="1" stroke-width="1" stroke-opacity="1" font-family="Arial" font-size="10" transform="matrix(1,0,0,1,0,0)" >11.4 Soprano recorder</text>
<text x="4.8515625" y="12329" fill="black" fill-opacity="1" stroke-width="1" stroke-opacity="1" font-family="Arial" font-size="10" transform="matrix(1,0,0,1,0,0)" >11.5 Clarinet</text>
<text x="4.177734375" y="12425" fill="black" fill-opacity="1" stroke-width="1" stroke-opacity="1" font-family="Arial" font-size="10" transform="matrix(1,0,0,1,0,0)" >11.6 Alto sax</text>
<text x="-7.828125" y="12521" fill="black" fill-opacity="1" stroke-width="1" stroke-opacity="1" font-family="Arial" font-size="10" transform="matrix(1,0,0,1,0,0)" >11.7 Trombone</text>
<text x="21.521484375" y="12617" fill="black" fill-opacity="1" stroke-width="1" stroke-opacity="1" font-family="Arial" font-size="10" transform="matrix(1,0,0,1,0,0)" >11.8 cello</text>
<text x="-47.162109375" y="12713" fill="black" fill-opacity="1" stroke-width="1" stroke-opacity="1" font-family="Arial" font-size="10" transform="matrix(1,0,0,1,0,0)" >11.9 Perc: bass drums</text>
<text x="-3.837890625" y="12809" fill="black" fill-opacity="1" stroke-width="1" stroke-opacity="1" font-family="Arial" font-size="10" transform="matrix(1,0,0,1,0,0)" >11.10 soprano</text>
<text x="-32.2734375" y="12905" fill="black" fill-opacity="1" stroke-width="1" stroke-opacity="1" font-family="Arial" font-size="10" transform="matrix(1,0,0,1,0,0)" >11.11 Electric guitar</text>
<text x="-12.50390625" y="13001" fill="black" fill-opacity="1" stroke-width="1" stroke-opacity="1" font-family="Arial" font-size="10" transform="matrix(1,0,0,1,0,0)" >11.12 accordion</text>
<text x="16.177734375" y="13133" fill="black" fill-opacity="1" stroke-width="1" stroke-opacity="1" font-family="Arial" font-size="10" transform="matrix(1,0,0,1,0,0)" >12.1 Violin</text>
<text x="18.84375" y="13229" fill="black" fill-opacity="1" stroke-width="1" stroke-opacity="1" font-family="Arial" font-size="10" transform="matrix(1,0,0,1,0,0)" >12.2 Viola</text>
<text x="18.6328125" y="13325" fill="black" fill-opacity="1" stroke-width="1" stroke-opacity="1" font-family="Arial" font-size="10" transform="matrix(1,0,0,1,0,0)" >12.3 Flute</text>
<text x="-32.5078125" y="13421" fill="black" fill-opacity="1" stroke-width="1" stroke-opacity="1" font-family="Arial" font-size="10" transform="matrix(1,0,0,1,0,0)" >12.4 Tenor recorder</text>
<text x="3.9609375" y="13517" fill="black" fill-opacity="1" stroke-width="1" stroke-opacity="1" font-family="Arial" font-size="10" transform="matrix(1,0,0,1,0,0)" >12.5 Clarinet</text>
<text x="-6.498046875" y="13613" fill="black" fill-opacity="1" stroke-width="1" stroke-opacity="1" font-family="Arial" font-size="10" transform="matrix(1,0,0,1,0,0)" >12.6 Tenor sax</text>
<text x="19.30078125" y="13709" fill="black" fill-opacity="1" stroke-width="1" stroke-opacity="1" font-family="Arial" font-size="10" transform="matrix(1,0,0,1,0,0)" >12.7 Horn</text>
<text x="20.630859375" y="13805" fill="black" fill-opacity="1" stroke-width="1" stroke-opacity="1" font-family="Arial" font-size="10" transform="matrix(1,0,0,1,0,0)" >12.8 cello</text>
<text x="-112.869140625" y="13901" fill="black" fill-opacity="1" stroke-width="1" stroke-opacity="1" font-family="Arial" font-size="10" transform="matrix(1,0,0,1,0,0)" >12.9 Percussion: Snare + Tom-tom</text>
<text x="-4.728515625" y="13997" fill="black" fill-opacity="1" stroke-width="1" stroke-opacity="1" font-family="Arial" font-size="10" transform="matrix(1,0,0,1,0,0)" >12.10 baritone</text>
<text x="-33.1640625" y="14093" fill="black" fill-opacity="1" stroke-width="1" stroke-opacity="1" font-family="Arial" font-size="10" transform="matrix(1,0,0,1,0,0)" >12.11 Electric guitar</text>
<text x="-13.39453125" y="14189" fill="black" fill-opacity="1" stroke-width="1" stroke-opacity="1" font-family="Arial" font-size="10" transform="matrix(1,0,0,1,0,0)" >12.12 accordion</text>
<text x="500" y="1116" fill="black" fill-opacity="1" stroke-width="1" stroke-opacity="1" font-family="Bravura" font-size="22" transform="matrix(1,0,0,1,0,0)" ></text>
<path d="M5,3 L73,3" stroke-width="2" stroke="rgb(0,0,255)" stroke-opacity="1" fill="none" transform="matrix(1,0,0,1,502,1113)" />
<path d="M73,1 L73,5" stroke-width="1" stroke="rgb(0,0,255)" stroke-opacity="1" fill="none" transform="matrix(1,0,0,1,502,1113)" />
<path d="M598.5999755859375,1137 L608.4000244140625,1137" fill="black" fill-opacity="1" stroke="black" stroke-width="0.4" stroke-opacity="1" transform="matrix(1,0,0,1,0,0)" />
<path d="M598.5999755859375,1143 L608.4000244140625,1143" fill="black" fill-opacity="1" stroke="black" stroke-width="0.4" stroke-opacity="1" transform="matrix(1,0,0,1,0,0)" />
<path d="M598.5999755859375,1149 L608.4000244140625,1149" fill="black" fill-opacity="1" stroke="black" stroke-width="0.4" stroke-opacity="1" transform="matrix(1,0,0,1,0,0)" />
<path d="M598.5999755859375,1155 L608.4000244140625,1155" fill="black" fill-opacity="1" stroke="black" stroke-width="0.4" stroke-opacity="1" transform="matrix(1,0,0,1,0,0)" />
<text x="600" y="1155" fill="black" fill-opacity="1" stroke-width="1" stroke-opacity="1" font-family="Bravura" font-size="22" transform="matrix(1,0,0,1,0,0)" ></text>
<path d="M5,3 L73,3" stroke-width="2" stroke="rgb(0,0,255)" stroke-opacity="1" fill="none" transform="matrix(1,0,0,1,602,1152)" />
<path d="M73,1 L73,5" stroke-width="1" stroke="rgb(0,0,255)" stroke-opacity="1" fill="none" transform="matrix(1,0,0,1,602,1152)" />
<path d="M100,51 L1300,51,M100,57 L1300,57,M100,63 L1300,63,M100,69 L1300,69,M100,75 L1300,75,M100,147 L1300,147,M100,153 L1300,153,M100,159 L1300,159,M100,165 L1300,165,M100,171 L1300,171,M100,243 L1300,243,M100,249 L1300,249,M100,255 L1300,255,M100,261 L1300,261,M100,267 L1300,267,M100,339 L1300,339,M100,345 L1300,345,M100,351 L1300,351,M100,357 L1300,357,M100,363 L1300,363,M100,435 L1300,435,M100,441 L1300,441,M100,447 L1300,447,M100,453 L1300,453,M100,459 L1300,459,M100,531 L1300,531,M100,537 L1300,537,M100,543 L1300,543,M100,549 L1300,549,M100,555 L1300,555,M100,627 L1300,627,M100,633 L1300,633,M100,639 L1300,639,M100,645 L1300,645,M100,651 L1300,651,M100,723 L1300,723,M100,729 L1300,729,M100,735 L1300,735,M100,741 L1300,741,M100,747 L1300,747,M100,819 L1300,819,M100,825 L1300,825,M100,831 L1300,831,M100,837 L1300,837,M100,843 L1300,843,M100,915 L1300,915,M100,921 L1300,921,M100,927 L1300,927,M100,933 L1300,933,M100,939 L1300,939,M100,1011 L1300,1011,M100,1017 L1300,1017,M100,1023 L1300,1023,M100,1029 L1300,1029,M100,1035 L1300,1035,M100,1107 L1300,1107,M100,1113 L1300,1113,M100,1119 L1300,1119,M100,1125 L1300,1125,M100,1131 L1300,1131,M100,1143 L1300,1143,M100,1149 L1300,1149,M100,1155 L1300,1155,M100,1161 L1300,1161,M100,1167 L1300,1167,M100,1239 L1300,1239,M100,1245 L1300,1245,M100,1251 L1300,1251,M100,1257 L1300,1257,M100,1263 L1300,1263,M100,1335 L1300,1335,M100,1341 L1300,1341,M100,1347 L1300,1347,M100,1353 L1300,1353,M100,1359 L1300,1359,M100,1431 L1300,1431,M100,1437 L1300,1437,M100,1443 L1300,1443,M100,1449 L1300,1449,M100,1455 L1300,1455,M100,1527 L1300,1527,M100,1533 L1300,1533,M100,1539 L1300,1539,M100,1545 L1300,1545,M100,1551 L1300,1551,M100,1623 L1300,1623,M100,1629 L1300,1629,M100,1635 L1300,1635,M100,1641 L1300,1641,M100,1647 L1300,1647,M100,1719 L1300,1719,M100,1725 L1300,1725,M100,1731 L1300,1731,M100,1737 L1300,1737,M100,1743 L1300,1743,M100,1815 L1300,1815,M100,1821 L1300,1821,M100,1827 L1300,1827,M100,1833 L1300,1833,M100,1839 L1300,1839,M100,1911 L1300,1911,M100,1917 L1300,1917,M100,1923 L1300,1923,M100,1929 L1300,1929,M100,1935 L1300,1935,M100,2007 L1300,2007,M100,2013 L1300,2013,M100,2019 L1300,2019,M100,2025 L1300,2025,M100,2031 L1300,2031,M100,2103 L1300,2103,M100,2109 L1300,2109,M100,2115 L1300,2115,M100,2121 L1300,2121,M100,2127 L1300,2127,M100,2199 L1300,2199,M100,2205 L1300,2205,M100,2211 L1300,2211,M100,2217 L1300,2217,M100,2223 L1300,2223,M100,2295 L1300,2295,M100,2301 L1300,2301,M100,2307 L1300,2307,M100,2313 L1300,2313,M100,2319 L1300,2319,M100,2331 L1300,2331,M100,2337 L1300,2337,M100,2343 L1300,2343,M100,2349 L1300,2349,M100,2355 L1300,2355,M100,2427 L1300,2427,M100,2433 L1300,2433,M100,2439 L1300,2439,M100,2445 L1300,2445,M100,2451 L1300,2451,M100,2523 L1300,2523,M100,2529 L1300,2529,M100,2535 L1300,2535,M100,2541 L1300,2541,M100,2547 L1300,2547,M100,2619 L1300,2619,M100,2625 L1300,2625,M100,2631 L1300,2631,M100,2637 L1300,2637,M100,2643 L1300,2643,M100,2715 L1300,2715,M100,2721 L1300,2721,M100,2727 L1300,2727,M100,2733 L1300,2733,M100,2739 L1300,2739,M100,2811 L1300,2811,M100,2817 L1300,2817,M100,2823 L1300,2823,M100,2829 L1300,2829,M100,2835 L1300,2835,M100,2907 L1300,2907,M100,2913 L1300,2913,M100,2919 L1300,2919,M100,2925 L1300,2925,M100,2931 L1300,2931,M100,3003 L1300,3003,M100,3009 L1300,3009,M100,3015 L1300,3015,M100,3021 L1300,3021,M100,3027 L1300,3027,M100,3099 L1300,3099,M100,3105 L1300,3105,M100,3111 L1300,3111,M100,3117 L1300,3117,M100,3123 L1300,3123,M100,3195 L1300,3195,M100,3201 L1300,3201,M100,3207 L1300,3207,M100,3213 L1300,3213,M100,3219 L1300,3219,M100,3291 L1300,3291,M100,3297 L1300,3297,M100,3303 L1300,3303,M100,3309 L1300,3309,M100,3315 L1300,3315,M100,3387 L1300,3387,M100,3393 L1300,3393,M100,3399 L1300,3399,M100,3405 L1300,3405,M100,3411 L1300,3411,M100,3483 L1300,3483,M100,3489 L1300,3489,M100,3495 L1300,3495,M100,3501 L1300,3501,M100,3507 L1300,3507,M100,3519 L1300,3519,M100,3525 L1300,3525,M100,3531 L1300,3531,M100,3537 L1300,3537,M100,3543 L1300,3543,M100,3615 L1300,3615,M100,3621 L1300,3621,M100,3627 L1300,3627,M100,3633 L1300,3633,M100,3639 L1300,3639,M100,3711 L1300,3711,M100,3717 L1300,3717,M100,3723 L1300,3723,M100,3729 L1300,3729,M100,3735 L1300,3735,M100,3807 L1300,3807,M100,3813 L1300,3813,M100,3819 L1300,3819,M100,3825 L1300,3825,M100,3831 L1300,3831,M100,3903 L1300,3903,M100,3909 L1300,3909,M100,3915 L1300,3915,M100,3921 L1300,3921,M100,3927 L1300,3927,M100,3999 L1300,3999,M100,4005 L1300,4005,M100,4011 L1300,4011,M100,4017 L1300,4017,M100,4023 L1300,4023,M100,4095 L1300,4095,M100,4101 L1300,4101,M100,4107 L1300,4107,M100,4113 L1300,4113,M100,4119 L1300,4119,M100,4191 L1300,4191,M100,4197 L1300,4197,M100,4203 L1300,4203,M100,4209 L1300,4209,M100,4215 L1300,4215,M100,4287 L1300,4287,M100,4293 L1300,4293,M100,4299 L1300,4299,M100,4305 L1300,4305,M100,4311 L1300,4311,M100,4383 L1300,4383,M100,4389 L1300,4389,M100,4395 L1300,4395,M100,4401 L1300,4401,M100,4407 L1300,4407,M100,4479 L1300,4479,M100,4485 L1300,4485,M100,4491 L1300,4491,M100,4497 L1300,4497,M100,4503 L1300,4503,M100,4575 L1300,4575,M100,4581 L1300,4581,M100,4587 L1300,4587,M100,4593 L1300,4593,M100,4599 L1300,4599,M100,4671 L1300,4671,M100,4677 L1300,4677,M100,4683 L1300,4683,M100,4689 L1300,4689,M100,4695 L1300,4695,M100,4707 L1300,4707,M100,4713 L1300,4713,M100,4719 L1300,4719,M100,4725 L1300,4725,M100,4731 L1300,4731,M100,4803 L1300,4803,M100,4809 L1300,4809,M100,4815 L1300,4815,M100,4821 L1300,4821,M100,4827 L1300,4827,M100,4899 L1300,4899,M100,4905 L1300,4905,M100,4911 L1300,4911,M100,4917 L1300,4917,M100,4923 L1300,4923,M100,4995 L1300,4995,M100,5001 L1300,5001,M100,5007 L1300,5007,M100,5013 L1300,5013,M100,5019 L1300,5019,M100,5091 L1300,5091,M100,5097 L1300,5097,M100,5103 L1300,5103,M100,5109 L1300,5109,M100,5115 L1300,5115,M100,5187 L1300,5187,M100,5193 L1300,5193,M100,5199 L1300,5199,M100,5205 L1300,5205,M100,5211 L1300,5211,M100,5283 L1300,5283,M100,5289 L1300,5289,M100,5295 L1300,5295,M100,5301 L1300,5301,M100,5307 L1300,5307,M100,5379 L1300,5379,M100,5385 L1300,5385,M100,5391 L1300,5391,M100,5397 L1300,5397,M100,5403 L1300,5403,M100,5475 L1300,5475,M100,5481 L1300,5481,M100,5487 L1300,5487,M100,5493 L1300,5493,M100,5499 L1300,5499,M100,5571 L1300,5571,M100,5577 L1300,5577,M100,5583 L1300,5583,M100,5589 L1300,5589,M100,5595 L1300,5595,M100,5667 L1300,5667,M100,5673 L1300,5673,M100,5679 L1300,5679,M100,5685 L1300,5685,M100,5691 L1300,5691,M100,5763 L1300,5763,M100,5769 L1300,5769,M100,5775 L1300,5775,M100,5781 L1300,5781,M100,5787 L1300,5787,M100,5859 L1300,5859,M100,5865 L1300,5865,M100,5871 L1300,5871,M100,5877 L1300,5877,M100,5883 L1300,5883,M100,5895 L1300,5895,M100,5901 L1300,5901,M100,5907 L1300,5907,M100,5913 L1300,5913,M100,5919 L1300,5919,M100,5991 L1300,5991,M100,5997 L1300,5997,M100,6003 L1300,6003,M100,6009 L1300,6009,M100,6015 L1300,6015,M100,6087 L1300,6087,M100,6093 L1300,6093,M100,6099 L1300,6099,M100,6105 L1300,6105,M100,6111 L1300,6111,M100,6183 L1300,6183,M100,6189 L1300,6189,M100,6195 L1300,6195,M100,6201 L1300,6201,M100,6207 L1300,6207,M100,6279 L1300,6279,M100,6285 L1300,6285,M100,6291 L1300,6291,M100,6297 L1300,6297,M100,6303 L1300,6303,M100,6375 L1300,6375,M100,6381 L1300,6381,M100,6387 L1300,6387,M100,6393 L1300,6393,M100,6399 L1300,6399,M100,6471 L1300,6471,M100,6477 L1300,6477,M100,6483 L1300,6483,M100,6489 L1300,6489,M100,6495 L1300,6495,M100,6567 L1300,6567,M100,6573 L1300,6573,M100,6579 L1300,6579,M100,6585 L1300,6585,M100,6591 L1300,6591,M100,6663 L1300,6663,M100,6669 L1300,6669,M100,6675 L1300,6675,M100,6681 L1300,6681,M100,6687 L1300,6687,M100,6759 L1300,6759,M100,6765 L1300,6765,M100,6771 L1300,6771,M100,6777 L1300,6777,M100,6783 L1300,6783,M100,6855 L1300,6855,M100,6861 L1300,6861,M100,6867 L1300,6867,M100,6873 L1300,6873,M100,6879 L1300,6879,M100,6951 L1300,6951,M100,6957 L1300,6957,M100,6963 L1300,6963,M100,6969 L1300,6969,M100,6975 L1300,6975,M100,7047 L1300,7047,M100,7053 L1300,7053,M100,7059 L1300,7059,M100,7065 L1300,7065,M100,7071 L1300,7071,M100,7083 L1300,7083,M100,7089 L1300,7089,M100,7095 L1300,7095,M100,7101 L1300,7101,M100,7107 L1300,7107,M100,7179 L1300,7179,M100,7185 L1300,7185,M100,7191 L1300,7191,M100,7197 L1300,7197,M100,7203 L1300,7203,M100,7275 L1300,7275,M100,7281 L1300,7281,M100,7287 L1300,7287,M100,7293 L1300,7293,M100,7299 L1300,7299,M100,7371 L1300,7371,M100,7377 L1300,7377,M100,7383 L1300,7383,M100,7389 L1300,7389,M100,7395 L1300,7395,M100,7467 L1300,7467,M100,7473 L1300,7473,M100,7479 L1300,7479,M100,7485 L1300,7485,M100,7491 L1300,7491,M100,7563 L1300,7563,M100,7569 L1300,7569,M100,7575 L1300,7575,M100,7581 L1300,7581,M100,7587 L1300,7587,M100,7659 L1300,7659,M100,7665 L1300,7665,M100,7671 L1300,7671,M100,7677 L1300,7677,M100,7683 L1300,7683,M100,7755 L1300,7755,M100,7761 L1300,7761,M100,7767 L1300,7767,M100,7773 L1300,7773,M100,7779 L1300,7779,M100,7851 L1300,7851,M100,7857 L1300,7857,M100,7863 L1300,7863,M100,7869 L1300,7869,M100,7875 L1300,7875,M100,7947 L1300,7947,M100,7953 L1300,7953,M100,7959 L1300,7959,M100,7965 L1300,7965,M100,7971 L1300,7971,M100,8043 L1300,8043,M100,8049 L1300,8049,M100,8055 L1300,8055,M100,8061 L1300,8061,M100,8067 L1300,8067,M100,8139 L1300,8139,M100,8145 L1300,8145,M100,8151 L1300,8151,M100,8157 L1300,8157,M100,8163 L1300,8163,M100,8235 L1300,8235,M100,8241 L1300,8241,M100,8247 L1300,8247,M100,8253 L1300,8253,M100,8259 L1300,8259,M100,8271 L1300,8271,M100,8277 L1300,8277,M100,8283 L1300,8283,M100,8289 L1300,8289,M100,8295 L1300,8295,M100,8367 L1300,8367,M100,8373 L1300,8373,M100,8379 L1300,8379,M100,8385 L1300,8385,M100,8391 L1300,8391,M100,8463 L1300,8463,M100,8469 L1300,8469,M100,8475 L1300,8475,M100,8481 L1300,8481,M100,8487 L1300,8487,M100,8559 L1300,8559,M100,8565 L1300,8565,M100,8571 L1300,8571,M100,8577 L1300,8577,M100,8583 L1300,8583,M100,8655 L1300,8655,M100,8661 L1300,8661,M100,8667 L1300,8667,M100,8673 L1300,8673,M100,8679 L1300,8679,M100,8751 L1300,8751,M100,8757 L1300,8757,M100,8763 L1300,8763,M100,8769 L1300,8769,M100,8775 L1300,8775,M100,8847 L1300,8847,M100,8853 L1300,8853,M100,8859 L1300,8859,M100,8865 L1300,8865,M100,8871 L1300,8871,M100,8943 L1300,8943,M100,8949 L1300,8949,M100,8955 L1300,8955,M100,8961 L1300,8961,M100,8967 L1300,8967,M100,9039 L1300,9039,M100,9045 L1300,9045,M100,9051 L1300,9051,M100,9057 L1300,9057,M100,9063 L1300,9063,M100,9135 L1300,9135,M100,9141 L1300,9141,M100,9147 L1300,9147,M100,9153 L1300,9153,M100,9159 L1300,9159,M100,9231 L1300,9231,M100,9237 L1300,9237,M100,9243 L1300,9243,M100,9249 L1300,9249,M100,9255 L1300,9255,M100,9327 L1300,9327,M100,9333 L1300,9333,M100,9339 L1300,9339,M100,9345 L1300,9345,M100,9351 L1300,9351,M100,9423 L1300,9423,M100,9429 L1300,9429,M100,9435 L1300,9435,M100,9441 L1300,9441,M100,9447 L1300,9447,M100,9459 L1300,9459,M100,9465 L1300,9465,M100,9471 L1300,9471,M100,9477 L1300,9477,M100,9483 L1300,9483,M100,9555 L1300,9555,M100,9561 L1300,9561,M100,9567 L1300,9567,M100,9573 L1300,9573,M100,9579 L1300,9579,M100,9651 L1300,9651,M100,9657 L1300,9657,M100,9663 L1300,9663,M100,9669 L1300,9669,M100,9675 L1300,9675,M100,9747 L1300,9747,M100,9753 L1300,9753,M100,9759 L1300,9759,M100,9765 L1300,9765,M100,9771 L1300,9771,M100,9843 L1300,9843,M100,9849 L1300,9849,M100,9855 L1300,9855,M100,9861 L1300,9861,M100,9867 L1300,9867,M100,9939 L1300,9939,M100,9945 L1300,9945,M100,9951 L1300,9951,M100,9957 L1300,9957,M100,9963 L1300,9963,M100,10035 L1300,10035,M100,10041 L1300,10041,M100,10047 L1300,10047,M100,10053 L1300,10053,M100,10059 L1300,10059,M100,10131 L1300,10131,M100,10137 L1300,10137,M100,10143 L1300,10143,M100,10149 L1300,10149,M100,10155 L1300,10155,M100,10227 L1300,10227,M100,10233 L1300,10233,M100,10239 L1300,10239,M100,10245 L1300,10245,M100,10251 L1300,10251,M100,10323 L1300,10323,M100,10329 L1300,10329,M100,10335 L1300,10335,M100,10341 L1300,10341,M100,10347 L1300,10347,M100,10419 L1300,10419,M100,10425 L1300,10425,M100,10431 L1300,10431,M100,10437 L1300,10437,M100,10443 L1300,10443,M100,10515 L1300,10515,M100,10521 L1300,10521,M100,10527 L1300,10527,M100,10533 L1300,10533,M100,10539 L1300,10539,M100,10611 L1300,10611,M100,10617 L1300,10617,M100,10623 L1300,10623,M100,10629 L1300,10629,M100,10635 L1300,10635,M100,10647 L1300,10647,M100,10653 L1300,10653,M100,10659 L1300,10659,M100,10665 L1300,10665,M100,10671 L1300,10671,M100,10743 L1300,10743,M100,10749 L1300,10749,M100,10755 L1300,10755,M100,10761 L1300,10761,M100,10767 L1300,10767,M100,10839 L1300,10839,M100,10845 L1300,10845,M100,10851 L1300,10851,M100,10857 L1300,10857,M100,10863 L1300,10863,M100,10935 L1300,10935,M100,10941 L1300,10941,M100,10947 L1300,10947,M100,10953 L1300,10953,M100,10959 L1300,10959,M100,11031 L1300,11031,M100,11037 L1300,11037,M100,11043 L1300,11043,M100,11049 L1300,11049,M100,11055 L1300,11055,M100,11127 L1300,11127,M100,11133 L1300,11133,M100,11139 L1300,11139,M100,11145 L1300,11145,M100,11151 L1300,11151,M100,11223 L1300,11223,M100,11229 L1300,11229,M100,11235 L1300,11235,M100,11241 L1300,11241,M100,11247 L1300,11247,M100,11319 L1300,11319,M100,11325 L1300,11325,M100,11331 L1300,11331,M100,11337 L1300,11337,M100,11343 L1300,11343,M100,11415 L1300,11415,M100,11421 L1300,11421,M100,11427 L1300,11427,M100,11433 L1300,11433,M100,11439 L1300,11439,M100,11511 L1300,11511,M100,11517 L1300,11517,M100,11523 L1300,11523,M100,11529 L1300,11529,M100,11535 L1300,11535,M100,11607 L1300,11607,M100,11613 L1300,11613,M100,11619 L1300,11619,M100,11625 L1300,11625,M100,11631 L1300,11631,M100,11703 L1300,11703,M100,11709 L1300,11709,M100,11715 L1300,11715,M100,11721 L1300,11721,M100,11727 L1300,11727,M100,11799 L1300,11799,M100,11805 L1300,11805,M100,11811 L1300,11811,M100,11817 L1300,11817,M100,11823 L1300,11823,M100,11835 L1300,11835,M100,11841 L1300,11841,M100,11847 L1300,11847,M100,11853 L1300,11853,M100,11859 L1300,11859,M100,11931 L1300,11931,M100,11937 L1300,11937,M100,11943 L1300,11943,M100,11949 L1300,11949,M100,11955 L1300,11955,M100,12027 L1300,12027,M100,12033 L1300,12033,M100,12039 L1300,12039,M100,12045 L1300,12045,M100,12051 L1300,12051,M100,12123 L1300,12123,M100,12129 L1300,12129,M100,12135 L1300,12135,M100,12141 L1300,12141,M100,12147 L1300,12147,M100,12219 L1300,12219,M100,12225 L1300,12225,M100,12231 L1300,12231,M100,12237 L1300,12237,M100,12243 L1300,12243,M100,12315 L1300,12315,M100,12321 L1300,12321,M100,12327 L1300,12327,M100,12333 L1300,12333,M100,12339 L1300,12339,M100,12411 L1300,12411,M100,12417 L1300,12417,M100,12423 L1300,12423,M100,12429 L1300,12429,M100,12435 L1300,12435,M100,12507 L1300,12507,M100,12513 L1300,12513,M100,12519 L1300,12519,M100,12525 L1300,12525,M100,12531 L1300,12531,M100,12603 L1300,12603,M100,12609 L1300,12609,M100,12615 L1300,12615,M100,12621 L1300,12621,M100,12627 L1300,12627,M100,12699 L1300,12699,M100,12705 L1300,12705,M100,12711 L1300,12711,M100,12717 L1300,12717,M100,12723 L1300,12723,M100,12795 L1300,12795,M100,12801 L1300,12801,M100,12807 L1300,12807,M100,12813 L1300,12813,M100,12819 L1300,12819,M100,12891 L1300,12891,M100,12897 L1300,12897,M100,12903 L1300,12903,M100,12909 L1300,12909,M100,12915 L1300,12915,M100,12987 L1300,12987,M100,12993 L1300,12993,M100,12999 L1300,12999,M100,13005 L1300,13005,M100,13011 L1300,13011,M100,13023 L1300,13023,M100,13029 L1300,13029,M100,13035 L1300,13035,M100,13041 L1300,13041,M100,13047 L1300,13047,M100,13119 L1300,13119,M100,13125 L1300,13125,M100,13131 L1300,13131,M100,13137 L1300,13137,M100,13143 L1300,13143,M100,13215 L1300,13215,M100,13221 L1300,13221,M100,13227 L1300,13227,M100,13233 L1300,13233,M100,13239 L1300,13239,M100,13311 L1300,13311,M100,13317 L1300,13317,M100,13323 L1300,13323,M100,13329 L1300,13329,M100,13335 L1300,13335,M100,13407 L1300,13407,M100,13413 L1300,13413,M100,13419 L1300,13419,M100,13425 L1300,13425,M100,13431 L1300,13431,M100,13503 L1300,13503,M100,13509 L1300,13509,M100,13515 L1300,13515,M100,13521 L1300,13521,M100,13527 L1300,13527,M100,13599 L1300,13599,M100,13605 L1300,13605,M100,13611 L1300,13611,M100,13617 L1300,13617,M100,13623 L1300,13623,M100,13695 L1300,13695,M100,13701 L1300,13701,M100,13707 L1300,13707,M100,13713 L1300,13713,M100,13719 L1300,13719,M100,13791 L1300,13791,M100,13797 L1300,13797,M100,13803 L1300,13803,M100,13809 L1300,13809,M100,13815 L1300,13815,M100,13887 L1300,13887,M100,13893 L1300,13893,M100,13899 L1300,13899,M100,13905 L1300,13905,M100,13911 L1300,13911,M100,13983 L1300,13983,M100,13989 L1300,13989,M100,13995 L1300,13995,M100,14001 L1300,14001,M100,14007 L1300,14007,M100,14079 L1300,14079,M100,14085 L1300,14085,M100,14091 L1300,14091,M100,14097 L1300,14097,M100,14103 L1300,14103,M100,14175 L1300,14175,M100,14181 L1300,14181,M100,14187 L1300,14187,M100,14193 L1300,14193,M100,14199 L1300,14199,M100,14211 L1300,14211,M100,14217 L1300,14217,M100,14223 L1300,14223,M100,14229 L1300,14229,M100,14235 L1300,14235," fill="black" fill-opacity="1" stroke="black" stroke-width="0.4" stroke-opacity="1" transform="matrix(1,0,0,1,0,0)" />
</g>
</svg>
